<svg xmlns="http://www.w3.org/2000/svg" viewBox="0 0 139.22 78.5"><defs><style>.cls-1{fill:#0073a5;}.cls-2{fill:#fff;}</style></defs><title>amex</title><g id="Camada_6" data-name="Camada 6"><rect class="cls-1" width="139.22" height="78.5"/><polygon class="cls-2" points="43.35 48.44 43.35 50.44 49.35 50.44 49.35 52.44 43.35 52.44 43.35 55.44 49.54 55.44 52.6 51.92 49.62 48.44 43.35 48.44"/><path class="cls-2" d="M79.54,48.75a2.5,2.5,0,0,0-1.3-.31H75.35v2.77l3.08-.08A2.36,2.36,0,0,0,79.54,51a1.45,1.45,0,0,0,.55-1.19A1.1,1.1,0,0,0,79.54,48.75Z"/><polygon class="cls-2" points="89.52 28.98 87.68 33.44 91.37 33.44 89.52 28.98"/><path class="cls-2" d="M68,31.34a.79.79,0,0,0,.5-.85,1,1,0,0,0-.5-1,3.5,3.5,0,0,0-1.34-.06H63.35v2H66.7C67.24,31.44,67.62,31.6,68,31.34Z"/><polygon class="cls-2" points="25.54 28.98 23.65 33.44 27.38 33.44 25.54 28.98"/><path class="cls-2" d="M15.35,40.44h8l1.05-3h2.31l1,3h8.67v-2l1.23,2h4.74l1-2.06v2.06h22v-4H66c.33,0,.32-.16.32.35v3.65h12v-1a8.25,8.25,0,0,0,4.08,1h4.91l1-3H90.7l1,3h9.61V38l1.26,2.43h7.74v-16h-8v2l-.79-2H94.35v2l-1.39-2H82.6a7.71,7.71,0,0,0-4.25,1.08V24.44h-7v1.08a6.38,6.38,0,0,0-3.48-1.08H41.78l-1.8,4-1.85-4H30.35v2l-1.37-2H22l-6.7,16,.08,0ZM78.66,28a5.53,5.53,0,0,1,4.11-1.52h2.58v3H82.77a2.91,2.91,0,0,0-2.1.53A3.32,3.32,0,0,0,80,32.42,3.83,3.83,0,0,0,80.67,35a2.76,2.76,0,0,0,1.85.4h1.22l3.86-9h4L96.35,37.5V26.44h3.91l5.09,8.24V26.44h3v12h-4.44l-5.56-8.76v8.76h-5l-1.05-3H86.71l-1,3H82.52A6,6,0,0,1,78.57,37a6.53,6.53,0,0,1-1.39-4.5A6.22,6.22,0,0,1,78.66,28Zm-5.31-1.52h3v12h-3Zm-12,0h5.56a6.11,6.11,0,0,1,3.23.72,3.07,3.07,0,0,1,1.42,2.78,3.19,3.19,0,0,1-1.94,3,3.2,3.2,0,0,1,1.28,1,2.91,2.91,0,0,1,.46,2v2.54h-3V36.7c0-.63.24-1.4-.22-2-.42-.38-.89-.27-1.86-.27H63.35v4h-2Zm-11,0h9v3h-7v2h7v2h-7v2h7v3h-9Zm-26.74,0h4L32.35,37.5V26.44h4.18l3.52,7.65,3.32-7.65h5v12h-3V29.3L41.1,38.44H38.8L35.35,29.3v9.14h-6l-1-3H22.68l-1,3H18.78Z"/><path class="cls-2" d="M66.45,48.44H62.35v3h4.09A1.49,1.49,0,0,0,68,49.85C68,48.89,67.41,48.44,66.45,48.44Z"/><polygon class="cls-2" points="60.35 56.59 60.35 47.51 56.2 51.92 60.35 56.59"/><path class="cls-2" d="M106.35,45v-.55H98.92a6.75,6.75,0,0,0-3.57.55v-.55h-13V45c-1-.8-2.65-.55-3.53-.55H70.35V45c-1-.8-2.86-.55-4-.55H56.63l-2.27,2.44-2.06-2.44h-15v15h14.7L54.36,57l2.1,2.44h8.89v-3h.76a14.91,14.91,0,0,0,4.24-.9v3.9h7v-4h.17a.78.78,0,0,1,.83.77v3.23h21.7c1.34,0,3.3.05,3.3-.58v.58h7.32a9.64,9.64,0,0,0,3.68-.3v0s3.09-1.39,3.14-4.41a5.42,5.42,0,0,0-1.8-4.53c-.16-.05,1.66,0,1.66,0V44.44h-7.73A6,6,0,0,0,106.35,45ZM66.28,54.44H62.35v3H57.68l-3.31-3.7-3.44,3.7H40.35v-11H51.09l3.27,3.7,3.48-3.7h8.6c2.1,0,4.49.89,4.49,4S68.59,54.44,66.28,54.44Zm17.07,3h-3V56.21a3.73,3.73,0,0,0-.51-2.27,2.62,2.62,0,0,0-2-.5H75.35v4h-3v-11H78.4a7.1,7.1,0,0,1,3.32.47,2.45,2.45,0,0,1,1.34,2.45,3,3,0,0,1-1.83,3,3.16,3.16,0,0,1,1.49,1,3.43,3.43,0,0,1,.63,2.06Zm10-9h-6v2h6v2h-6v3h6v2h-9v-11h9Zm7.08,9H95.35v-2h5.08a1.73,1.73,0,0,0,1-.39,1.42,1.42,0,0,0,.34-.85,1.07,1.07,0,0,0-.34-.79,1.34,1.34,0,0,0-1-.23c-2.48-.08-5.62.12-5.62-3.45,0-1.6,1-3.29,3.86-3.29h5.6v2H99.17a1.66,1.66,0,0,0-1,.26,1.11,1.11,0,0,0-.42,1,.75.75,0,0,0,.55.73,4.31,4.31,0,0,0,1,0h1.47a4.75,4.75,0,0,1,3.15,1,4,4,0,0,1,.8,2.54C104.71,56.36,103.16,57.44,100.43,57.44Zm14.92-11v2h-5.65a1.66,1.66,0,0,0-1,.26,1.38,1.38,0,0,0-.42,1,.75.75,0,0,0,.55.73,4.33,4.33,0,0,0,1.05,0h1.47a4.75,4.75,0,0,1,3.15,1,4,4,0,0,1,.8,2.54c0,2.4-1.55,3.47-4.28,3.47h-4.61v-2H111a1.53,1.53,0,0,0,1-.39,1.41,1.41,0,0,0,.33-.85,1.07,1.07,0,0,0-.33-.79,1.34,1.34,0,0,0-1-.23c-2.47-.08-5.62.12-5.62-3.45,0-1.6,1-3.29,3.86-3.29Z"/><polygon class="cls-1" points="59.35 35.44 52.35 35.44 52.35 33.44 59.35 33.44 59.35 31.44 52.35 31.44 52.35 29.44 59.35 29.44 59.35 26.44 50.35 26.44 50.35 38.44 59.35 38.44 59.35 35.44"/><path class="cls-1" d="M63.35,34.44h2.93c1,0,1.44-.11,1.86.27.46.59.22,1.36.22,2v1.74h3V35.9a2.91,2.91,0,0,0-.46-2,3.2,3.2,0,0,0-1.28-1,3.19,3.19,0,0,0,1.94-3,3.07,3.07,0,0,0-1.42-2.78,6.11,6.11,0,0,0-3.23-.72H61.35v12h2Zm0-5H66.7A3.5,3.5,0,0,1,68,29.5a1,1,0,0,1,.5,1,.79.79,0,0,1-.5.85c-.42.25-.8.09-1.34.09H63.35Z"/><path class="cls-1" d="M82.52,38.44h3.15l1-3h5.62l1.05,3h5V29.68l5.56,8.76h4.44v-12h-3v8.24l-5.09-8.24H96.35V37.5L91.58,26.44h-4l-3.86,9H82.52a2.76,2.76,0,0,1-1.85-.4A3.83,3.83,0,0,1,80,32.42,3.32,3.32,0,0,1,80.67,30a2.91,2.91,0,0,1,2.1-.53h2.58v-3H82.77A5.53,5.53,0,0,0,78.66,28a6.22,6.22,0,0,0-1.47,4.52A6.53,6.53,0,0,0,78.57,37,6,6,0,0,0,82.52,38.44Zm7-9.46,1.85,4.46H87.68Z"/><rect class="cls-1" x="73.35" y="26.44" width="3" height="12"/><path class="cls-1" d="M66.45,46.44h-8.6l-3.48,3.7-3.27-3.7H40.35v11H50.92l3.44-3.7,3.31,3.7h4.67v-3h3.93c2.31,0,4.66-.89,4.66-4S68.54,46.44,66.45,46.44Zm-16.91,9H43.35v-3h6v-2h-6v-2h6.27l3,3.48Zm10.81,1.15L56.2,51.92l4.15-4.41Zm6.09-5.15H62.35v-3h4.09c1,0,1.59.45,1.59,1.42A1.49,1.49,0,0,1,66.45,51.44Z"/><polygon class="cls-1" points="84.35 57.44 93.35 57.44 93.35 55.44 87.35 55.44 87.35 52.44 93.35 52.44 93.35 50.44 87.35 50.44 87.35 48.44 93.35 48.44 93.35 46.44 84.35 46.44 84.35 57.44"/><path class="cls-1" d="M22.68,35.44h5.66l1,3h6V29.3l3.44,9.14H41.1l4.25-9.14v9.14h3v-12h-5l-3.32,7.65-3.52-7.65H32.35V37.5L27.59,26.44h-4l-4.83,12h2.89ZM25.54,29l1.84,4.46H23.65Z"/><path class="cls-1" d="M81.24,52.34a3,3,0,0,0,1.83-3,2.45,2.45,0,0,0-1.34-2.45,7.1,7.1,0,0,0-3.32-.47H72.35v11h3v-4h2.51a2.62,2.62,0,0,1,2,.5,3.73,3.73,0,0,1,.51,2.27v1.23h3V55.37a3.43,3.43,0,0,0-.63-2.06A3.16,3.16,0,0,0,81.24,52.34ZM79.54,51a2.36,2.36,0,0,1-1.11.17l-3.08.08V48.44h2.89a2.5,2.5,0,0,1,1.3.31,1.1,1.1,0,0,1,.55,1A1.45,1.45,0,0,1,79.54,51Z"/><path class="cls-1" d="M100.77,50.44H99.3a4.31,4.31,0,0,1-1,0,.75.75,0,0,1-.55-.73,1.11,1.11,0,0,1,.42-1,1.66,1.66,0,0,1,1-.26h5.18v-2h-5.6c-2.89,0-3.86,1.69-3.86,3.29,0,3.57,3.15,3.37,5.62,3.45a1.34,1.34,0,0,1,1,.23,1.07,1.07,0,0,1,.34.79,1.42,1.42,0,0,1-.34.85,1.73,1.73,0,0,1-1,.39H95.35v2h5.08c2.73,0,4.28-1.08,4.28-3.47a4,4,0,0,0-.8-2.54A4.75,4.75,0,0,0,100.77,50.44Z"/><path class="cls-1" d="M105.43,49.73c0,3.57,3.15,3.37,5.62,3.45a1.34,1.34,0,0,1,1,.23,1.07,1.07,0,0,1,.33.79,1.41,1.41,0,0,1-.33.85,1.53,1.53,0,0,1-1,.39h-4.61v2H111c2.73,0,4.28-1.08,4.28-3.47a4,4,0,0,0-.8-2.54,4.75,4.75,0,0,0-3.15-1h-1.47a4.33,4.33,0,0,1-1.05,0,.75.75,0,0,1-.55-.73,1.38,1.38,0,0,1,.42-1,1.66,1.66,0,0,1,1-.26h5.65v-2h-6.07C106.48,46.44,105.43,48.13,105.43,49.73Z"/></g></svg>