<svg xmlns="http://www.w3.org/2000/svg" viewBox="0 0 139.22 78.5"><defs><style>.cls-1{fill:#fff;}.cls-2{fill:#312783;}.cls-3{fill:#1d1d1b;}</style></defs><title>dinners</title><g id="Camada_7" data-name="Camada 7"><rect class="cls-1" x="0.09" y="0.33" width="138.47" height="77.68"/><path class="cls-2" d="M81.1,40.75a16.25,16.25,0,0,0,0-32.51h-21a16.25,16.25,0,1,0,0,32.51Z"/><path class="cls-1" d="M60.09,8.77A15.74,15.74,0,1,1,44.36,24.51,15.77,15.77,0,0,1,60.09,8.77Zm3.16,5.95V34.28a10.28,10.28,0,0,0,0-19.56Zm-6.1,19.64V14.64a10.29,10.29,0,0,0,0,19.72Z"/><path class="cls-3" d="M52.94,63.22l2.24-.47a.13.13,0,0,1,.14.18l-.72,2.75a11.73,11.73,0,0,1,1.68-2.4,1.34,1.34,0,0,1,.92-.47c.7.06.6,1.05.31,1.37a1,1,0,0,1-.6.35.55.55,0,0,1-.29-.08.44.44,0,0,1-.21-.27c0-.1,0-.14-.06-.18s-.12,0-.14,0a4.5,4.5,0,0,0-.53.62,10.63,10.63,0,0,0-1.11,2,12.52,12.52,0,0,0-.47,1.19c-.18.6-.29,1-.33,1.07l-.21,1H52.37L53.68,65a4.06,4.06,0,0,0,.14-1.09.32.32,0,0,0-.1-.23.54.54,0,0,0-.35-.12,1.22,1.22,0,0,0-.47-.06Z"/><path class="cls-3" d="M45.78,60.88l-.51,2h1.19l-.12.51H45.16L44,68a2.8,2.8,0,0,0-.12.78.29.29,0,0,0,.06.2.2.2,0,0,0,.14.08c.12,0,.25-.1.45-.27a5.94,5.94,0,0,0,.64-.78l.23.19a5.49,5.49,0,0,1-1.19,1.46,1.63,1.63,0,0,1-.9.29.63.63,0,0,1-.49-.21.78.78,0,0,1-.2-.55,6.16,6.16,0,0,1,.21-1.29L44,63.37H43l.06-.31a3.53,3.53,0,0,0,1.35-.7,5.44,5.44,0,0,0,1.09-1.48Z"/><path class="cls-3" d="M75.89,61l-.51,2h1.19l-.14.49H75.27l-1.17,4.6a2.21,2.21,0,0,0-.12.78.35.35,0,0,0,.06.21.17.17,0,0,0,.12.06.85.85,0,0,0,.47-.27,3.91,3.91,0,0,0,.64-.78l.23.19a5.65,5.65,0,0,1-1.19,1.48,1.6,1.6,0,0,1-.9.27.61.61,0,0,1-.51-.21.83.83,0,0,1-.18-.55A5.35,5.35,0,0,1,72.95,68l1.13-4.49-1,0,.08-.31a3.71,3.71,0,0,0,1.33-.68A5.07,5.07,0,0,0,75.58,61Z"/><path class="cls-3" d="M32.93,69.5l-.08.29h-4.1l.1-.29a2.28,2.28,0,0,0,.74-.12A1,1,0,0,0,30,69a4.72,4.72,0,0,0,.47-1.31l1.62-6.38a6.49,6.49,0,0,0,.2-1.21.56.56,0,0,0-.08-.33.59.59,0,0,0-.27-.21,2.08,2.08,0,0,0-.72-.08l.1-.29,4,0-.08.29a2.05,2.05,0,0,0-.76.08,1,1,0,0,0-.47.45,6.24,6.24,0,0,0-.43,1.29L32,67.7a5.88,5.88,0,0,0-.23,1.13.66.66,0,0,0,.1.33.64.64,0,0,0,.27.21A4.8,4.8,0,0,0,32.93,69.5Z"/><path class="cls-3" d="M104.42,68c0,.14-.57,1.68.39,1a3,3,0,0,0,.84-.92l.21.23a4.72,4.72,0,0,1-1.27,1.38c-.49.37-1.46.49-1.56-.37a3.82,3.82,0,0,1,.16-1.23L105.12,61c.14-.55.25-1.27-.37-1.35a2.39,2.39,0,0,0-.43,0l0-.29,2.26-.39c.12,0,.19,0,.16.18Z"/><path class="cls-3" d="M79.22,59.45a.66.66,0,0,1,.51.23.71.71,0,0,1,.2.53.78.78,0,0,1-.2.55.71.71,0,0,1-.51.21.74.74,0,0,1-.51-.21.78.78,0,0,1-.2-.55.71.71,0,0,1,.2-.53A.66.66,0,0,1,79.22,59.45Z"/><path class="cls-3" d="M47,46.15a.74.74,0,0,1,.55.23.81.81,0,0,1,.21.57.78.78,0,0,1-.23.57.67.67,0,0,1-.53.23.73.73,0,0,1-.53-.23.76.76,0,0,1-.21-.57.73.73,0,0,1,.21-.57A.67.67,0,0,1,47,46.15Z"/><path class="cls-3" d="M79.44,62.87l-1.52,5.32c-.25.86.06,1.31.66.74a3.59,3.59,0,0,0,.76-.9l.23.18c-.31.57-1.33,1.93-2.3,1.87a.6.6,0,0,1-.45-.19.66.66,0,0,1-.21-.47,3.75,3.75,0,0,1,.1-1L77.65,65l.19-.84c.08-.37-.08-.68-.41-.7l-.47,0,0-.31,2.26-.51C79.4,62.67,79.48,62.73,79.44,62.87Z"/><path class="cls-3" d="M47.26,49.92l-1.54,5.6c-.25.9,0,1.37.68.78a3.9,3.9,0,0,0,.76-1l.23.19c-.31.59-1.25,2.07-2.36,2a.59.59,0,0,1-.49-.23.92.92,0,0,1-.19-.49,3.53,3.53,0,0,1,.12-1.07l.94-3.57.21-.88c.1-.39-.08-.78-.43-.8a2.22,2.22,0,0,0-.49,0l0-.33,2.38-.47C47.26,49.7,47.3,49.78,47.26,49.92Z"/><path class="cls-3" d="M51.12,50l-.9,3.28c.49-1,2.63-3.78,4-3.43.9.23.55,1.81.37,2.4l-.92,3.39c-.29,1.09.2,1.05.43.86A7,7,0,0,0,55,55.2l.21.16c-.27.7-1.21,2.38-2.34,2.24a.65.65,0,0,1-.41-.21.78.78,0,0,1-.18-.49,7.44,7.44,0,0,1,.25-1.37l.84-3.33c.16-.6.23-1.31-.18-1.35-1.79.08-3.26,3.53-3.72,5.19l-.39,1.37H47.94l1.42-5.21.21-1c.12-.49-.27-.7-.66-.66l-.31,0,.06-.31c.74-.12,1.6-.31,2.34-.43C51.06,49.82,51.16,49.84,51.12,50Z"/><path class="cls-3" d="M37.57,62.87l-.82,2.81c.47-1,2.4-3.43,3.76-3.08.86.21.55,1.74.41,2.3L40,68.15c-.29,1.05.23.94.41.78a7.22,7.22,0,0,0,1-1.17l.21.16c-.27.66-1.29,2.26-2.36,2.13a.65.65,0,0,1-.41-.18,1,1,0,0,1-.16-.49,4.53,4.53,0,0,1,.21-1.31l.84-3.18c.1-.37.27-1.29-.14-1.29-1.74.19-3.3,3.55-3.67,4.93l-.35,1.33-1.13,0,1.37-5L36,64c.1-.47-.29-.6-.66-.62h-.27l0-.29,2.32-.39A.11.11,0,0,1,37.57,62.87Z"/><path class="cls-3" d="M60.39,62.87l-.84,2.81c.47-1,2.42-3.43,3.76-3.08.86.21.57,1.74.41,2.3l-.9,3.26c-.27,1.05.23.94.43.78a8.58,8.58,0,0,0,.9-1.13l.21.14c-.27.68-1.23,2.24-2.3,2.11a.57.57,0,0,1-.41-.18.81.81,0,0,1-.16-.49,4.34,4.34,0,0,1,.19-1.31l.84-3.18c.1-.37.18-1.21-.21-1.21-1.74.2-3.22,3.47-3.57,4.86l-.35,1.33-1.15,0,1.37-5,.2-.86c.1-.47-.29-.6-.66-.62h-.27l0-.29,2.34-.39A.11.11,0,0,1,60.39,62.87Z"/><path class="cls-3" d="M90.83,62.75,90,65.58c.47-1,2.42-3.43,3.76-3.1.86.21.57,1.76.41,2.3L93.27,68c-.27,1.05.23.94.43.78a6.62,6.62,0,0,0,.9-1.13l.21.16c-.27.66-1.23,2.22-2.3,2.09a.57.57,0,0,1-.41-.18.73.73,0,0,1-.16-.49,4.24,4.24,0,0,1,.2-1.29l.86-3.2c.08-.35.16-1.19-.23-1.19-1.74.2-3.22,3.47-3.57,4.86l-.35,1.31-1.15,0,1.37-5,.2-.86c.1-.49-.29-.62-.66-.62h-.25l0-.29,2.34-.41C90.75,62.59,90.87,62.63,90.83,62.75Z"/><path class="cls-3" d="M62.75,50.33A18.7,18.7,0,0,0,65,49.8c.14,0,.21.06.2.16l-.76,3a8.23,8.23,0,0,1,2-2.89c.62-.43,1.31,0,1.13.86s-1.09,1.37-1.48.21c-1.25,1.21-2.22,4-2.54,5.23l-.25,1.05H62.26l1.35-5.17c.18-.64.43-1.68-.82-1.58Z"/><path class="cls-3" d="M72.18,49.86l-.31,2.48H71.6c0-.84-.29-2.09-1.38-2.09a1,1,0,0,0-.76,1.44l.47.76c.55.86.92,1.52,1.13,1.91a2.26,2.26,0,0,1-2,3.28,4.61,4.61,0,0,1-1.56-.35c-.16-.06-.29.06-.41.31h-.27l.33-2.69h.27c0,1,.35,2.28,1.58,2.28,1.25-.23,1.25-1.58.53-2.69l-1-1.56a2.16,2.16,0,0,1,.06-2.54c1.11-1.07,2.07-.53,3-.23a.31.31,0,0,0,.33-.31Z"/><path class="cls-3" d="M85.45,46l-.59,3.33h-.31c-.06-1.48-.12-2.93-2.2-2.94a3.24,3.24,0,0,0-2.3,1,8.6,8.6,0,0,0-2.34,5.91A3.86,3.86,0,0,0,78.54,56c1.74,2,4.23.7,5.38-1.09l.29.33A4.88,4.88,0,0,1,80,57.66a4.16,4.16,0,0,1-2.15-.59,3.68,3.68,0,0,1-1.4-1.62A5.18,5.18,0,0,1,76,53.19a7.92,7.92,0,0,1,.94-3.57,6.56,6.56,0,0,1,5.34-3.74,5.17,5.17,0,0,1,2.3.51.7.7,0,0,0,.6-.37Z"/><path class="cls-3" d="M89.21,45.78l-2.44,9.69c-.43,1.7.66,1.07,1.35-.1l.23.25c-.8,1.4-2.07,2.34-2.71,1.76-.25-.23-.31-.72-.06-1.72l2-7.8c.25-1,.43-1.68-.82-1.6V46L89,45.55C89.17,45.51,89.27,45.61,89.21,45.78Z"/><path class="cls-3" d="M95.9,49.94l-1.29,5.23a3.86,3.86,0,0,0-.18,1.05.31.31,0,0,0,.06.21c.35.53,1-.47,1.38-1.05l.21.2a6,6,0,0,1-1.33,1.72c-.31.25-1.05.49-1.37.12a.85.85,0,0,1-.19-.55,12.31,12.31,0,0,1,.66-3.06c.1-.33.12-.33-.06,0-.66,1.23-2.18,3.84-3.67,3.82-.66,0-.88-.66-.88-1.13a7,7,0,0,1,.29-1.72l.62-2.57a7.81,7.81,0,0,0,.19-.9c.06-.43-.1-.8-.9-.8l0-.29a14.74,14.74,0,0,0,2.09-.39c.21,0,.37,0,.31.23l-1.25,4.84c-.06.21-.45,1.64.16,1.74s2.34-2,3-3.72a25.53,25.53,0,0,0,.94-2.94Z"/><path class="cls-3" d="M47.9,66.28a4.37,4.37,0,0,0,1.38-.39,3,3,0,0,0,1.21-1,1.92,1.92,0,0,0,.37-1.07c0-.21.06-.39-.06-.53a.47.47,0,0,0-.43-.21c-.45,0-.84.33-1.37.9a4.62,4.62,0,0,0-1.11,2.32Zm-.16.53c0,.25,0,.47,0,.64a2.21,2.21,0,0,0,.31,1.4,1.57,1.57,0,0,0,1.15.43,2.21,2.21,0,0,0,.94-.35A6.24,6.24,0,0,0,51.2,68l.21.21c-1.07,1.33-2,1.74-2.93,1.74a1.82,1.82,0,0,1-1.58-.7,3,3,0,0,1-.47-1.66,5.15,5.15,0,0,1,.62-2.36,4.91,4.91,0,0,1,1.66-1.89,3.62,3.62,0,0,1,2-.74,1.48,1.48,0,0,1,1.05.33,1.18,1.18,0,0,1,.33.84,1.93,1.93,0,0,1-.45,1.25,4.12,4.12,0,0,1-1.74,1.25A8.28,8.28,0,0,1,47.75,66.81Z"/><path class="cls-3" d="M69,63.16a1.36,1.36,0,0,0-.78.47,4.77,4.77,0,0,0-1.21,2,7.19,7.19,0,0,0-.58,2.34,1.68,1.68,0,0,0,.12.9.55.55,0,0,0,.51.31c.49,0,1.09-.51,1.6-1.4a7.89,7.89,0,0,0,1.31-3.43,1.15,1.15,0,0,0-.23-.92.66.66,0,0,0-.72-.21Zm2.57-.27L70.14,68l-.12.62c-.12.57.29.49.62.21a2.06,2.06,0,0,0,.62-.8l.23.2a6.12,6.12,0,0,1-1.11,1.33c-.6.55-1.54.8-1.54-.25a7.9,7.9,0,0,1,.35-1.79,11,11,0,0,1-1.68,2.09,1.92,1.92,0,0,1-1.21.43,1,1,0,0,1-.86-.43,2.1,2.1,0,0,1-.31-1.33,6.11,6.11,0,0,1,.64-2.59,6.46,6.46,0,0,1,1.64-2.26,2.68,2.68,0,0,1,1.6-.64c.29,0,.59,0,.76.14s.37.2.47.59l.18-.6Z"/><path class="cls-3" d="M99.53,63.16a1.45,1.45,0,0,0-.8.45,5.22,5.22,0,0,0-1.21,2,7.19,7.19,0,0,0-.58,2.34,1.82,1.82,0,0,0,.12.88.56.56,0,0,0,.51.33c.49,0,1.09-.53,1.6-1.4a7.89,7.89,0,0,0,1.31-3.43,1.13,1.13,0,0,0-.21-.92.64.64,0,0,0-.72-.21Zm2.57-.29L100.68,68l-.12.6c-.1.59.31.51.64.23a2.82,2.82,0,0,0,.62-.8l.23.2a6.66,6.66,0,0,1-1.13,1.33c-.59.55-1.54.8-1.54-.25a7.32,7.32,0,0,1,.37-1.81,12.06,12.06,0,0,1-1.7,2.11,1.84,1.84,0,0,1-1.19.41,1,1,0,0,1-.88-.43,2.17,2.17,0,0,1-.31-1.31,5.88,5.88,0,0,1,.66-2.59A6.46,6.46,0,0,1,98,63.41a2.72,2.72,0,0,1,1.6-.66,1.1,1.1,0,0,1,.76.16c.18.16.35.2.45.59l.19-.62Z"/><path class="cls-3" d="M85.86,64.76a2.12,2.12,0,0,0-.39-1.21,1.11,1.11,0,0,0-.88-.41c-.66,0-1.35.45-2,1.62a6.44,6.44,0,0,0-1,3.33,1.74,1.74,0,0,0,.35,1.13,1,1,0,0,0,.92.43A2.76,2.76,0,0,0,84.9,68a7.27,7.27,0,0,0,1-3.26Zm1.23.47a4.92,4.92,0,0,1-.74,2.5,6.54,6.54,0,0,1-1.74,1.77,4,4,0,0,1-2.15.6,2,2,0,0,1-1.56-.66,2.59,2.59,0,0,1-.6-1.76,5.12,5.12,0,0,1,.64-2.28,5.32,5.32,0,0,1,1.83-2,3.37,3.37,0,0,1,1.81-.62,2.51,2.51,0,0,1,1.83.66A2.78,2.78,0,0,1,87.08,65.23Z"/><path class="cls-3" d="M100.58,45.71l-1.4,5.62a3.51,3.51,0,0,1,2.46-1.52,1.71,1.71,0,0,1,1.31.68,2.44,2.44,0,0,1,.51,1.66c0,2.59-2.09,5.44-4.49,5.46-1.38,0-2.34-.23-2-1.72L98.84,48c.21-1,.35-1.58-.74-1.44v-.31a8.72,8.72,0,0,0,2.24-.68c.12,0,.29,0,.23.18Zm-1.4,11.51a2.24,2.24,0,0,0,1.23-.62c1.21-1,2.38-4.23,1.37-5.48a1,1,0,0,0-.78-.43c-1.23,0-1.91,1.44-2.13,2.34l-.68,2.67C97.91,56.74,97.89,57.17,99.18,57.21Z"/><path class="cls-3" d="M35.07,46.45l.08-.31h3.22a7.89,7.89,0,0,1,3.28.55A3.69,3.69,0,0,1,43.2,48.3a6.06,6.06,0,0,1,.25,4.56c-1,3-3.74,4.54-6.77,4.54H32.44l.1-.31a2.59,2.59,0,0,0,.78-.12,1,1,0,0,0,.43-.39,6.25,6.25,0,0,0,.47-1.4L36,48.38a5.49,5.49,0,0,0,.21-1.27.66.66,0,0,0-.19-.49,1.14,1.14,0,0,0-.74-.18Zm2.52,1.13-1.91,7.35a10.25,10.25,0,0,0-.23,1.17c-.08.31.23.51.49.57,4.88,1.21,7.64-5.91,5.27-9.13a2.79,2.79,0,0,0-2.38-1C38,46.56,37.78,46.8,37.59,47.58Z"/><path class="cls-3" d="M57.48,54C57,57.68,59.55,57.27,61,55.4l.14.25c-1,1.38-1.87,2-2.93,2a1.9,1.9,0,0,1-1.64-.76,2.75,2.75,0,0,1-.49-1.7,5.85,5.85,0,0,1,.66-2.63,5.45,5.45,0,0,1,1.68-2,3.62,3.62,0,0,1,2.09-.7c1.29,0,1.7,1.17.9,2.32a5.26,5.26,0,0,1-4,1.87Zm0-.41a5.43,5.43,0,0,0,1.76-.47A2.49,2.49,0,0,0,60.68,51c0-1.52-1.37-.53-2,.12A5.16,5.16,0,0,0,57.52,53.56Z"/><path class="cls-3" d="M108.54,59a1.46,1.46,0,0,1,0,2.91,1.45,1.45,0,0,1,0-2.91Zm0,.19a1.26,1.26,0,1,0,1.19,1.25,1.22,1.22,0,0,0-1.19-1.25Zm.59,2.09-.31-.78a.44.44,0,0,0,.31-.43.5.5,0,0,0-.2-.37.59.59,0,0,0-.37-.1h-.62v1.68h.21v-.72h.45l.31.72Zm-1-.9h.39a.3.3,0,0,0,.27-.1.31.31,0,0,0,.1-.21.28.28,0,0,0-.12-.23.35.35,0,0,0-.23-.06h-.41Z"/></g></svg>