<svg xmlns="http://www.w3.org/2000/svg" viewBox="0 0 139.22 78.5"><defs><style>.cls-1{fill:#ffed00;}.cls-2{fill:#00a0de;}.cls-3{fill:#e63312;}.cls-4{fill:#fff;}</style></defs><title>elo</title><g id="Camada_5" data-name="Camada 5"><rect width="138.66" height="78.5"/><path class="cls-1" d="M26.18,25.08a13.38,13.38,0,0,1,17.34,10l9.17-1.87a22.75,22.75,0,0,0-29.47-17Z"/><path class="cls-2" d="M15.37,54.78l6.2-7a13.36,13.36,0,0,1,0-20l-6.2-7a22.72,22.72,0,0,0,0,34Z"/><path class="cls-3" d="M43.52,40.44a13.38,13.38,0,0,1-17.34,10l-3,8.87a22.74,22.74,0,0,0,29.47-17Z"/><path class="cls-4" d="M83.2,46.71a8.11,8.11,0,0,1-10,1.07l-3,4.83A13.84,13.84,0,0,0,87.18,50.8Z"/><path class="cls-4" d="M77.7,27A13.87,13.87,0,0,0,65.88,48.45L91,37.72A13.87,13.87,0,0,0,77.7,27M69.38,41.74a7.3,7.3,0,0,1,0-1,8.16,8.16,0,0,1,14.4-5.14Z"/><path class="cls-4" d="M98.87,20.77V47.54l4.65,1.93-2.2,5.28-4.59-1.91a5.21,5.21,0,0,1-2.26-1.9,6,6,0,0,1-.89-3.32V20.77Z"/><path class="cls-4" d="M115.62,33.14a8.17,8.17,0,0,1,10.58,6.11l5.6-1.14a13.88,13.88,0,0,0-18-10.39Z"/><path class="cls-4" d="M109,51.27,112.8,47a8.16,8.16,0,0,1,0-12.22L109,30.5a13.87,13.87,0,0,0,0,20.77Z"/><path class="cls-4" d="M126.2,42.52a8.17,8.17,0,0,1-10.59,6.1L113.8,54a13.88,13.88,0,0,0,18-10.37Z"/></g></svg>