<svg id="hipercard" xmlns="http://www.w3.org/2000/svg" viewBox="0 0 139.22 78.5"><defs><style>.cls-1{fill:#fff;}.cls-2{fill:#991b1f;}</style></defs><title>hipercard</title><rect class="cls-1" x="0.09" y="0.33" width="138.47" height="77.68"/><path id="fundo" class="cls-2" d="M40.5,13.73H28.38c-5.36.25-9.73,2.41-11,6.86-.66,2.32-1,4.87-1.53,7.27-2.62,12.22-4.94,24.78-7.45,36.76h94.32c7.29,0,12.3-1.54,13.65-7.33.63-2.69,1.23-5.73,1.83-8.69,2.35-11.52,4.69-23,7.09-34.87H40.5Z"/><path id="hipercard-2" data-name="hipercard" class="cls-1" d="M39.55,31.81c.51-.35,1.16-1.94.41-2.6A1.41,1.41,0,0,0,38.78,29a1.44,1.44,0,0,0-1,.53c-.32.44-.61,1.76-.12,2.25S39.23,32,39.55,31.81Zm-7.21-2.6c-.36,2.36-.77,4.67-1.18,7-2.63,0-5.32.13-7.86-.06.48-2.26.82-4.65,1.3-6.92H21.76c-1,5.76-1.94,11.61-3.07,17.26h2.89c.46-2.89.88-5.82,1.48-8.57a70.21,70.21,0,0,1,7.8.06c-.49,2.86-1.08,5.62-1.54,8.51h2.9c.93-5.85,1.91-11.64,3.07-17.26Zm41,5c-2.25-.91-4,.63-4.85,2.07.19-.64.26-1.39.41-2.07H66.61c-.55,4.26-1.36,8.25-2.13,12.29H67c.35-2.4.51-5.63,1.3-7.92C69,36.72,70.61,35.16,73,36,73,35.34,73.22,34.82,73.29,34.18Zm1.42,9.4a6.2,6.2,0,0,1-.24-2.36,8.25,8.25,0,0,1,1.72-4.73c1.32-1.3,3.94-1.08,6-.35.07-.7.21-1.33.3-2-3.42-.56-6.67-.21-8.39,1.6a10.11,10.11,0,0,0-2,8.39c.91,3,5,3.15,8.33,2,.15-.6.22-1.27.35-1.89C79,45.17,75.52,45.66,74.71,43.57Zm28.55-9.34c-2.24-1.12-4.11.76-4.85,1.89.21-.58.22-1.36.42-2H96.58q-.91,6.33-2.18,12.29H97A27.92,27.92,0,0,1,97.58,42c.55-3.41,1.34-7.15,5.32-6C103,35.43,103.08,34.78,103.25,34.24Zm-66.31-.06c-.07,0-.06.09-.06.18-.56,4.19-1.32,8.18-2.12,12.12H37.3c.61-4.22,1.31-8.34,2.19-12.29Zm22.34-.24a6.64,6.64,0,0,0-4.49,1.83,10.25,10.25,0,0,0-2.13,7.44c.46,4.1,5.55,3.95,9.63,3,.07-.72.24-1.33.35-2-1.68.63-4.59,1.51-6.32.41-1.31-.82-1.31-2.91-.89-4.73,2.74-.09,5.59-.07,8.33,0,.17-1.29.67-2.69.24-4C63.44,34.21,61.38,33.78,59.29,33.94Zm2.42,4.49h-6a3.52,3.52,0,0,1,3.37-3C60.94,35.41,62.25,36.15,61.71,38.43ZM49.65,34.18a6.71,6.71,0,0,0-5.91,1.07s0,0-.06,0l.06,0h0c0-.39.16-.67.18-1.06H41.73c-.91,6.06-2,12-3.13,17.79h2.54c.37-2.27.61-4.67,1.12-6.8.58,2.24,4.37,1.81,6,.95C51.54,44.33,54.08,35.84,49.65,34.18Zm-2,10c-1.36,1.44-4.7,1.42-5-1a12.09,12.09,0,0,1,.47-3.25c.19-1.1.33-2.16.53-3.13,1.34-1.63,5.28-1.83,5.67.89A9,9,0,0,1,47.64,44.17Zm65.07-15.31c-.22,1.91-.51,3.74-.89,5.5-6.23-2-10.06,2.61-10,8.27a4.42,4.42,0,0,0,.89,3c1.18,1.33,4.56,1.66,6.26.53a4.33,4.33,0,0,0,.89-.89c.17-.21.43-.75.47-.59a13.54,13.54,0,0,0-.24,1.83h2.31c.44-6.37,1.81-11.81,2.84-17.61h-2.54ZM107,45.11c-1.71,0-2.56-1-2.6-2.78-.07-3.08,1.28-6.49,4-6.8a6.67,6.67,0,0,1,3.13.47C110.73,39.46,111,45,107,45.11ZM85.11,34.18c-.12.7-.32,1.34-.47,2,1.5-.38,6.17-1.53,6.62.47a3.49,3.49,0,0,1-.3,1.89c-4.22-.4-7.66.3-8.57,3.31-.61,2,.06,4,1.36,4.55a5.65,5.65,0,0,0,6.56-1.83,7.79,7.79,0,0,0-.18,1.89h2.19A33.72,33.72,0,0,1,93,40.8a22.56,22.56,0,0,0,.71-4.61C93.49,32.94,88.12,34.09,85.11,34.18Zm4.14,9.93c-1.31,1.28-5,1.65-4.61-1.42C85,40.14,87.72,39.6,90.72,40,90.5,41.36,90.25,43.13,89.25,44.11Z"/></svg>