<svg xmlns="http://www.w3.org/2000/svg" viewBox="0 0 139.22 78.5"><defs><style>.cls-1{fill:#fff;}.cls-2{fill:#fab335;}.cls-3{fill:#e62632;}.cls-4{fill:none;stroke:#fff;stroke-miterlimit:2.61;stroke-width:0.12px;}</style></defs><title>master</title><g id="Camada_3" data-name="Camada 3"><rect class="cls-1" x="0.09" y="0.33" width="138.47" height="77.68"/><polygon class="cls-2" points="89.23 69.96 90.78 69.92 92.32 69.81 93.83 69.61 95.32 69.35 96.78 69.01 98.21 68.6 99.61 68.13 100.99 67.59 102.33 66.98 103.63 66.32 104.9 65.58 106.12 64.8 107.31 63.96 108.45 63.06 109.54 62.12 110.59 61.11 111.6 60.06 112.55 58.96 113.44 57.82 114.28 56.64 115.07 55.41 115.8 54.15 116.46 52.85 117.07 51.51 117.61 50.13 118.09 48.73 118.49 47.3 118.83 45.84 119.1 44.34 119.29 42.84 119.4 41.3 119.44 39.75 119.4 38.2 119.29 36.67 119.1 35.17 118.83 33.69 118.49 32.24 118.09 30.81 117.61 29.41 117.07 28.05 116.46 26.71 115.8 25.41 115.07 24.16 114.28 22.93 113.44 21.75 112.55 20.62 111.6 19.52 110.59 18.48 109.54 17.48 108.45 16.53 107.31 15.64 106.12 14.79 104.9 14.01 103.63 13.29 102.33 12.63 100.99 12.02 99.61 11.47 98.21 11 96.78 10.59 95.32 10.26 93.83 9.99 92.32 9.8 90.78 9.68 89.23 9.65 87.68 9.68 86.15 9.8 84.64 9.99 83.16 10.26 81.7 10.59 80.27 11 78.88 11.47 77.5 12.02 76.17 12.63 74.88 13.29 73.61 14.01 72.39 14.79 71.21 15.64 70.07 16.53 68.98 17.48 67.94 18.48 66.94 19.52 65.99 20.62 65.1 21.75 64.27 22.93 63.48 24.16 62.76 25.41 62.09 26.71 61.49 28.05 60.95 29.41 60.48 30.81 60.08 32.24 59.74 33.69 59.47 35.17 59.28 36.67 59.17 38.2 59.13 39.75 59.17 41.3 59.28 42.84 59.47 44.34 59.74 45.84 60.08 47.3 60.48 48.73 60.95 50.13 61.49 51.51 62.09 52.85 62.76 54.15 63.48 55.41 64.27 56.64 65.1 57.82 65.99 58.96 66.94 60.06 67.94 61.11 68.98 62.12 70.07 63.06 71.21 63.96 72.39 64.8 73.61 65.58 74.88 66.32 76.17 66.98 77.5 67.59 78.88 68.13 80.27 68.6 81.7 69.01 83.16 69.35 84.64 69.61 86.15 69.81 87.68 69.92 89.23 69.96 89.23 69.96"/><polygon class="cls-3" points="48.88 69.96 50.43 69.92 51.97 69.81 53.47 69.61 54.96 69.35 56.41 69.01 57.84 68.6 59.24 68.13 60.61 67.59 61.95 66.98 63.24 66.32 64.5 65.58 65.72 64.8 66.9 63.96 68.04 63.06 69.13 62.12 70.18 61.11 71.17 60.06 72.12 58.96 73.02 57.82 73.85 56.64 74.63 55.41 75.36 54.15 76.02 52.85 76.63 51.51 77.17 50.13 77.63 48.73 78.04 47.3 78.38 45.84 78.64 44.34 78.83 42.84 78.94 41.3 78.98 39.75 78.94 38.2 78.83 36.67 78.64 35.17 78.38 33.69 78.04 32.24 77.63 30.81 77.17 29.41 76.63 28.05 76.02 26.71 75.36 25.41 74.63 24.16 73.85 22.93 73.02 21.75 72.12 20.62 71.17 19.52 70.18 18.48 69.13 17.48 68.04 16.53 66.9 15.64 65.72 14.79 64.5 14.01 63.24 13.29 61.95 12.63 60.61 12.02 59.24 11.47 57.84 11 56.41 10.59 54.96 10.26 53.47 9.99 51.97 9.8 50.43 9.68 48.88 9.65 47.33 9.68 45.79 9.8 44.29 9.99 42.79 10.26 41.34 10.59 39.9 11 38.5 11.47 37.12 12.02 35.78 12.63 34.48 13.29 33.22 14.01 31.99 14.79 30.81 15.64 29.67 16.53 28.57 17.48 27.52 18.48 26.52 19.52 25.57 20.62 24.67 21.75 23.83 22.93 23.05 24.16 22.31 25.41 21.65 26.71 21.04 28.05 20.5 29.41 20.02 30.81 19.62 32.24 19.28 33.69 19.02 35.17 18.82 36.67 18.71 38.2 18.67 39.75 18.71 41.3 18.82 42.84 19.02 44.34 19.28 45.84 19.62 47.3 20.02 48.73 20.5 50.13 21.04 51.51 21.65 52.85 22.31 54.15 23.05 55.41 23.83 56.64 24.67 57.82 25.57 58.96 26.52 60.06 27.52 61.11 28.57 62.12 29.67 63.06 30.81 63.96 31.99 64.8 33.22 65.58 34.48 66.32 35.78 66.98 37.12 67.59 38.5 68.13 39.9 68.6 41.34 69.01 42.79 69.35 44.29 69.61 45.79 69.81 47.33 69.92 48.88 69.96 48.88 69.96"/><polygon class="cls-2" points="65.53 21.21 81.55 21.21 81.55 19.57 66.91 19.57 65.53 21.21 65.53 21.21"/><polygon class="cls-2" points="63.13 24.85 81.55 24.85 81.55 23.21 64.09 23.21 63.13 24.85 63.13 24.85"/><polygon class="cls-2" points="61.34 28.48 81.55 28.48 81.55 26.84 62.05 26.84 61.34 28.48 61.34 28.48"/><polygon class="cls-2" points="60.1 32.13 81.55 32.13 81.55 30.49 60.61 30.49 60.1 32.13 60.1 32.13"/><polygon class="cls-2" points="60.82 49.73 81.6 49.73 81.6 48.09 60.31 48.09 60.82 49.73 60.82 49.73"/><polygon class="cls-2" points="62.35 53.37 81.6 53.37 81.6 51.73 61.59 51.73 62.35 53.37 62.35 53.37"/><polygon class="cls-2" points="64.51 57 81.6 57 81.6 55.36 63.48 55.36 64.51 57 64.51 57"/><polygon class="cls-2" points="67.48 60.64 81.6 60.64 81.6 58.99 66.05 58.99 67.48 60.64 67.48 60.64"/><polygon class="cls-2" points="59.38 35.76 81.55 35.76 81.55 34.12 59.7 34.12 59.38 35.76 59.38 35.76"/><polygon class="cls-2" points="72.89 46.09 81.34 46.09 81.34 44.45 73.2 44.45 72.89 46.09 72.89 46.09"/><polygon class="cls-2" points="73.56 42.46 81.34 42.46 81.34 40.81 73.87 40.81 73.56 42.46 73.56 42.46"/><polygon class="cls-2" points="58.82 40.81 61.02 40.81 61.02 42.46 58.92 42.46 58.82 40.81 58.82 40.81"/><polygon class="cls-1" points="54.72 38.83 54.58 38.82 54.44 38.8 54.31 38.78 54.17 38.76 54.05 38.74 53.92 38.72 53.79 38.7 53.65 38.68 53.5 38.66 53.34 38.65 53.16 38.64 52.96 38.63 52.75 38.63 52.52 38.64 52.25 38.66 51.96 38.68 51.75 38.71 51.56 38.74 51.39 38.8 51.23 38.86 51.09 38.93 50.96 39.01 50.86 39.12 50.77 39.21 50.7 39.32 50.65 39.43 50.63 39.55 50.63 39.67 50.66 39.81 50.7 39.94 50.78 40.07 50.89 40.2 51.09 40.4 51.34 40.55 51.62 40.68 51.93 40.79 52.25 40.9 52.59 41.01 52.92 41.13 53.25 41.26 53.55 41.44 53.84 41.65 54.09 41.9 54.31 42.22 54.47 42.6 54.57 43.06 54.61 43.61 54.57 44.25 54.5 44.73 54.38 45.15 54.22 45.53 54.01 45.87 53.78 46.16 53.51 46.42 53.23 46.64 52.91 46.83 52.59 46.99 52.25 47.12 51.9 47.22 51.55 47.3 51.2 47.36 50.87 47.4 50.53 47.42 50.22 47.42 49.78 47.42 49.37 47.42 49.02 47.42 48.68 47.41 48.38 47.4 48.1 47.38 47.86 47.35 47.62 47.32 47.41 47.3 47.22 47.26 47.02 47.23 46.85 47.18 46.68 47.14 46.52 47.08 46.35 47.02 46.18 46.96 46.63 44.71 46.73 44.73 46.84 44.76 46.98 44.8 47.16 44.84 47.34 44.88 47.54 44.92 47.77 44.97 48.01 45.01 48.27 45.06 48.53 45.1 48.8 45.13 49.09 45.16 49.38 45.17 49.68 45.18 49.97 45.18 50.27 45.17 50.56 45.1 50.8 45.02 50.98 44.91 51.12 44.77 51.22 44.63 51.31 44.47 51.36 44.3 51.4 44.15 51.42 43.86 51.33 43.6 51.15 43.4 50.9 43.22 50.59 43.07 50.24 42.92 49.84 42.78 49.44 42.61 49.04 42.43 48.65 42.22 48.29 41.95 47.97 41.64 47.71 41.25 47.53 40.79 47.44 40.24 47.45 39.59 47.5 39.2 47.57 38.82 47.67 38.47 47.8 38.15 47.96 37.84 48.14 37.58 48.36 37.33 48.61 37.1 48.9 36.91 49.23 36.74 49.6 36.59 50 36.48 50.46 36.39 50.96 36.32 51.51 36.28 52.11 36.27 52.49 36.27 52.83 36.28 53.15 36.29 53.43 36.3 53.69 36.32 53.92 36.34 54.12 36.36 54.31 36.38 54.48 36.4 54.62 36.43 54.76 36.45 54.88 36.47 54.98 36.49 55.07 36.5 55.16 36.52 55.24 36.53 54.72 38.83 54.72 38.83"/><polyline class="cls-4" points="54.72 38.83 54.72 38.83 54.58 38.82 54.44 38.8 54.31 38.78 54.17 38.76 54.05 38.74 53.92 38.72 53.79 38.7 53.65 38.68 53.5 38.66 53.34 38.65 53.16 38.64 52.96 38.63 52.75 38.63 52.52 38.64 52.25 38.66 51.96 38.68 51.96 38.68 51.75 38.71 51.56 38.74 51.39 38.8 51.23 38.86 51.09 38.93 50.96 39.01 50.86 39.12 50.77 39.21 50.7 39.32 50.65 39.43 50.63 39.55 50.63 39.67 50.66 39.81 50.7 39.94 50.78 40.07 50.89 40.2 50.89 40.2 51.09 40.4 51.34 40.55 51.62 40.68 51.93 40.79 52.25 40.9 52.59 41.01 52.92 41.13 53.25 41.26 53.55 41.44 53.84 41.65 54.09 41.9 54.31 42.22 54.47 42.6 54.57 43.06 54.61 43.61 54.57 44.25 54.57 44.25 54.5 44.73 54.38 45.15 54.22 45.53 54.01 45.87 53.78 46.16 53.51 46.42 53.23 46.64 52.91 46.83 52.59 46.99 52.25 47.12 51.9 47.22 51.55 47.3 51.2 47.36 50.87 47.4 50.53 47.42 50.22 47.42 50.22 47.42 49.78 47.42 49.37 47.42 49.02 47.42 48.68 47.41 48.38 47.4 48.1 47.38 47.86 47.35 47.62 47.32 47.41 47.3 47.22 47.26 47.02 47.23 46.85 47.18 46.68 47.14 46.52 47.08 46.35 47.02 46.18 46.96 46.63 44.71 46.63 44.71 46.73 44.73 46.84 44.76 46.98 44.8 47.16 44.84 47.34 44.88 47.54 44.92 47.77 44.97 48.01 45.01 48.27 45.06 48.53 45.1 48.8 45.13 49.09 45.16 49.38 45.17 49.68 45.18 49.97 45.18 50.27 45.17 50.27 45.17 50.56 45.1 50.8 45.02 50.98 44.91 51.12 44.77 51.22 44.63 51.31 44.47 51.36 44.3 51.4 44.15 51.4 44.15 51.42 43.86 51.33 43.6 51.15 43.4 50.9 43.22 50.59 43.07 50.24 42.92 49.84 42.78 49.44 42.61 49.04 42.43 48.65 42.22 48.29 41.95 47.97 41.64 47.71 41.25 47.53 40.79 47.44 40.24 47.45 39.59 47.45 39.59 47.5 39.2 47.57 38.82 47.67 38.47 47.8 38.15 47.96 37.84 48.14 37.58 48.36 37.33 48.61 37.1 48.9 36.91 49.23 36.74 49.6 36.59 50 36.48 50.46 36.39 50.96 36.32 51.51 36.28 52.11 36.27 52.11 36.27 52.49 36.27 52.83 36.28 53.15 36.29 53.43 36.3 53.69 36.32 53.92 36.34 54.12 36.36 54.31 36.38 54.48 36.4 54.62 36.43 54.76 36.45 54.88 36.47 54.98 36.49 55.07 36.5 55.16 36.52 55.24 36.53 54.72 38.83"/><polygon class="cls-1" points="57.13 34.02 59.95 34.02 59.53 36.48 61.23 36.48 60.87 38.78 59.08 38.73 58.1 44.41 58.09 44.61 58.14 44.78 58.24 44.91 58.38 45.02 58.56 45.1 58.76 45.16 58.98 45.2 59.23 45.22 59.45 45.21 59.66 45.19 59.84 45.16 60 45.12 60.13 45.07 60.23 45.05 60.29 45.02 60.31 45.01 59.95 46.91 59.88 46.96 59.81 47 59.74 47.04 59.67 47.08 59.6 47.11 59.52 47.14 59.42 47.17 59.33 47.2 59.23 47.23 59.13 47.26 59.01 47.27 58.89 47.3 58.75 47.32 58.6 47.33 58.44 47.35 58.26 47.38 57.49 47.38 57.08 47.34 56.73 47.3 56.4 47.24 56.13 47.17 55.89 47.08 55.7 46.98 55.53 46.85 55.4 46.72 55.29 46.58 55.22 46.41 55.17 46.23 55.14 46.04 55.13 45.83 55.13 45.61 55.16 45.37 55.19 45.12 57.13 34.02 57.13 34.02"/><polyline class="cls-4" points="57.13 34.02 59.95 34.02 59.53 36.48 61.23 36.48 60.87 38.78 59.08 38.73 58.1 44.41 58.1 44.41 58.09 44.61 58.14 44.78 58.24 44.91 58.38 45.02 58.56 45.1 58.76 45.16 58.98 45.2 59.23 45.22 59.23 45.22 59.45 45.21 59.66 45.19 59.84 45.16 60 45.12 60.13 45.07 60.23 45.05 60.29 45.02 60.31 45.01 59.95 46.91 59.95 46.91 59.88 46.96 59.81 47 59.74 47.04 59.67 47.08 59.6 47.11 59.52 47.14 59.42 47.17 59.33 47.2 59.23 47.23 59.13 47.26 59.01 47.27 58.89 47.3 58.75 47.32 58.6 47.33 58.44 47.35 58.26 47.38 57.49 47.38 57.49 47.38 57.08 47.34 56.73 47.3 56.4 47.24 56.13 47.17 55.89 47.08 55.7 46.98 55.53 46.85 55.4 46.72 55.29 46.58 55.22 46.41 55.17 46.23 55.14 46.04 55.13 45.83 55.13 45.61 55.16 45.37 55.19 45.12 57.13 34.02"/><polygon class="cls-1" points="63.48 42.61 63.45 42.79 63.44 42.97 63.46 43.16 63.5 43.36 63.57 43.55 63.66 43.73 63.77 43.93 63.89 44.1 64.03 44.27 64.19 44.42 64.35 44.58 64.53 44.7 64.71 44.81 64.92 44.91 65.12 44.97 65.32 45.01 65.59 45.06 65.84 45.09 66.11 45.12 66.37 45.14 66.64 45.15 66.91 45.15 67.17 45.14 67.45 45.12 67.72 45.07 68 45.02 68.28 44.96 68.56 44.87 68.84 44.76 69.14 44.64 69.42 44.48 69.72 44.3 69.31 46.81 69.15 46.89 68.98 46.97 68.82 47.03 68.67 47.09 68.52 47.14 68.36 47.19 68.19 47.23 68.02 47.26 67.84 47.3 67.63 47.32 67.42 47.33 67.19 47.35 66.92 47.36 66.65 47.36 66.33 47.38 65.99 47.38 65.5 47.36 64.99 47.32 64.48 47.24 63.97 47.12 63.47 46.97 62.99 46.77 62.53 46.52 62.11 46.23 61.71 45.88 61.37 45.46 61.07 44.99 60.83 44.45 60.66 43.86 60.54 43.17 60.51 42.42 60.56 41.59 60.6 41.26 60.66 40.88 60.74 40.49 60.86 40.06 61.01 39.62 61.19 39.19 61.43 38.74 61.71 38.31 62.04 37.91 62.43 37.52 62.88 37.17 63.39 36.87 63.98 36.61 64.64 36.43 65.38 36.31 66.2 36.27 66.6 36.28 67.01 36.32 67.43 36.39 67.85 36.49 68.25 36.64 68.65 36.83 69.01 37.07 69.35 37.35 69.66 37.7 69.91 38.11 70.11 38.58 70.26 39.12 70.34 39.73 70.35 40.42 70.28 41.19 70.13 42.05 70.07 42.66 62.66 42.66 63.13 40.66 67.58 40.66 67.6 40.41 67.59 40.16 67.57 39.94 67.53 39.73 67.46 39.54 67.39 39.37 67.29 39.22 67.19 39.07 67.06 38.95 66.93 38.85 66.78 38.76 66.62 38.68 66.46 38.62 66.3 38.58 66.13 38.55 65.94 38.53 65.75 38.53 65.57 38.56 65.4 38.61 65.22 38.67 65.05 38.75 64.9 38.84 64.74 38.95 64.61 39.07 64.48 39.22 64.36 39.37 64.25 39.53 64.15 39.7 64.06 39.89 63.99 40.09 63.93 40.29 63.89 40.51 63.48 42.61 63.48 42.61"/><polyline class="cls-4" points="63.48 42.61 63.48 42.61 63.45 42.79 63.44 42.97 63.46 43.16 63.5 43.36 63.57 43.55 63.66 43.73 63.77 43.93 63.89 44.1 64.03 44.27 64.19 44.42 64.35 44.58 64.53 44.7 64.71 44.81 64.92 44.91 65.12 44.97 65.32 45.01 65.32 45.01 65.59 45.06 65.84 45.09 66.11 45.12 66.37 45.14 66.64 45.15 66.91 45.15 67.17 45.14 67.45 45.12 67.72 45.07 68 45.02 68.28 44.96 68.56 44.87 68.84 44.76 69.14 44.64 69.42 44.48 69.72 44.3 69.31 46.81 69.31 46.81 69.15 46.89 68.98 46.97 68.82 47.03 68.67 47.09 68.52 47.14 68.36 47.19 68.19 47.23 68.02 47.26 67.84 47.3 67.63 47.32 67.42 47.33 67.19 47.35 66.92 47.36 66.65 47.36 66.33 47.38 65.99 47.38 65.99 47.38 65.5 47.36 64.99 47.32 64.48 47.24 63.97 47.12 63.47 46.97 62.99 46.77 62.53 46.52 62.11 46.23 61.71 45.88 61.37 45.46 61.07 44.99 60.83 44.45 60.66 43.86 60.54 43.17 60.51 42.42 60.56 41.59 60.56 41.59 60.6 41.26 60.66 40.88 60.74 40.49 60.86 40.06 61.01 39.62 61.19 39.19 61.43 38.74 61.71 38.31 62.04 37.91 62.43 37.52 62.88 37.17 63.39 36.87 63.98 36.61 64.64 36.43 65.38 36.31 66.2 36.27 66.2 36.27 66.6 36.28 67.01 36.32 67.43 36.39 67.85 36.49 68.25 36.64 68.65 36.83 69.01 37.07 69.35 37.35 69.66 37.7 69.91 38.11 70.11 38.58 70.26 39.12 70.34 39.73 70.35 40.42 70.28 41.19 70.13 42.05 70.07 42.66 62.66 42.66 63.13 40.66 67.58 40.66 67.58 40.66 67.6 40.41 67.59 40.16 67.57 39.94 67.53 39.73 67.46 39.54 67.39 39.37 67.29 39.22 67.19 39.07 67.06 38.95 66.93 38.85 66.78 38.76 66.62 38.68 66.46 38.62 66.3 38.58 66.13 38.55 65.94 38.53 65.94 38.53 65.75 38.53 65.57 38.56 65.4 38.61 65.22 38.67 65.05 38.75 64.9 38.84 64.74 38.95 64.61 39.07 64.48 39.22 64.36 39.37 64.25 39.53 64.15 39.7 64.06 39.89 63.99 40.09 63.93 40.29 63.89 40.51 63.48 42.61"/><polygon class="cls-1" points="87.74 37.09 87.61 37.02 87.48 36.96 87.34 36.89 87.18 36.82 87.03 36.75 86.86 36.69 86.69 36.63 86.5 36.57 86.31 36.52 86.12 36.48 85.9 36.44 85.69 36.41 85.46 36.39 85.22 36.37 84.98 36.37 84.72 36.37 84.47 36.37 84.2 36.39 83.93 36.42 83.64 36.47 83.36 36.55 83.07 36.66 82.79 36.8 82.5 36.99 82.23 37.21 81.97 37.48 81.71 37.8 81.47 38.18 81.24 38.63 81.03 39.13 80.83 39.7 80.67 40.36 80.61 40.72 80.57 41.08 80.55 41.44 80.56 41.78 80.59 42.13 80.66 42.45 80.76 42.76 80.87 43.06 81.02 43.34 81.2 43.6 81.42 43.84 81.66 44.05 81.94 44.23 82.25 44.38 82.6 44.52 82.98 44.61 83.12 44.64 83.27 44.67 83.45 44.69 83.65 44.71 83.88 44.73 84.11 44.73 84.36 44.73 84.62 44.71 84.89 44.68 85.15 44.63 85.4 44.56 85.66 44.48 85.91 44.36 86.15 44.23 86.36 44.07 86.56 43.88 86.11 46.6 86.04 46.65 85.98 46.71 85.9 46.78 85.81 46.85 85.7 46.93 85.56 47 85.4 47.07 85.21 47.13 84.98 47.2 84.71 47.26 84.41 47.3 84.05 47.33 83.65 47.35 83.2 47.36 82.68 47.35 82.11 47.32 81.64 47.27 81.17 47.17 80.7 47.02 80.24 46.81 79.79 46.57 79.36 46.27 78.96 45.91 78.58 45.5 78.24 45.05 77.96 44.54 77.71 43.97 77.53 43.35 77.41 42.66 77.37 41.94 77.39 41.15 77.5 40.3 77.58 39.89 77.67 39.48 77.77 39.09 77.88 38.71 77.99 38.35 78.12 38 78.25 37.66 78.39 37.34 78.55 37.03 78.7 36.73 78.88 36.45 79.06 36.19 79.24 35.93 79.44 35.69 79.65 35.46 79.86 35.25 80.09 35.05 80.33 34.85 80.57 34.68 80.83 34.52 81.1 34.36 81.38 34.23 81.66 34.11 81.95 34 82.27 33.9 82.59 33.82 82.91 33.74 83.26 33.68 83.6 33.63 83.97 33.59 84.34 33.57 84.72 33.56 85.05 33.57 85.36 33.59 85.67 33.62 85.97 33.66 86.26 33.7 86.53 33.76 86.8 33.82 87.04 33.88 87.28 33.94 87.48 34 87.67 34.06 87.83 34.12 87.98 34.17 88.1 34.21 88.19 34.25 88.25 34.27 87.74 37.09 87.74 37.09"/><polyline class="cls-4" points="87.74 37.09 87.74 37.09 87.61 37.02 87.48 36.96 87.34 36.89 87.18 36.82 87.03 36.75 86.86 36.69 86.69 36.63 86.5 36.57 86.31 36.52 86.12 36.48 85.9 36.44 85.69 36.41 85.46 36.39 85.22 36.37 84.98 36.37 84.72 36.37 84.72 36.37 84.47 36.37 84.2 36.39 83.93 36.42 83.64 36.47 83.36 36.55 83.07 36.66 82.79 36.8 82.5 36.99 82.23 37.21 81.97 37.48 81.71 37.8 81.47 38.18 81.24 38.63 81.03 39.13 80.83 39.7 80.67 40.36 80.67 40.36 80.61 40.72 80.57 41.08 80.55 41.44 80.56 41.78 80.59 42.13 80.66 42.45 80.76 42.76 80.87 43.06 81.02 43.34 81.2 43.6 81.42 43.84 81.66 44.05 81.94 44.23 82.25 44.38 82.6 44.52 82.98 44.61 82.98 44.61 83.12 44.64 83.27 44.67 83.45 44.69 83.65 44.71 83.88 44.73 84.11 44.73 84.36 44.73 84.62 44.71 84.89 44.68 85.15 44.63 85.4 44.56 85.66 44.48 85.91 44.36 86.15 44.23 86.36 44.07 86.56 43.88 86.11 46.6 86.11 46.6 86.04 46.65 85.98 46.71 85.9 46.78 85.81 46.85 85.7 46.93 85.56 47 85.4 47.07 85.21 47.13 84.98 47.2 84.71 47.26 84.41 47.3 84.05 47.33 83.65 47.35 83.2 47.36 82.68 47.35 82.11 47.32 82.11 47.32 81.64 47.27 81.17 47.17 80.7 47.02 80.24 46.81 79.79 46.57 79.36 46.27 78.96 45.91 78.58 45.5 78.24 45.05 77.96 44.54 77.71 43.97 77.53 43.35 77.41 42.66 77.37 41.94 77.39 41.15 77.5 40.3 77.5 40.3 77.58 39.89 77.67 39.48 77.77 39.09 77.88 38.71 77.99 38.35 78.12 38 78.25 37.66 78.39 37.34 78.55 37.03 78.7 36.73 78.88 36.45 79.06 36.19 79.24 35.93 79.44 35.69 79.65 35.46 79.86 35.25 80.09 35.05 80.33 34.85 80.57 34.68 80.83 34.52 81.1 34.36 81.38 34.23 81.66 34.11 81.95 34 82.27 33.9 82.59 33.82 82.91 33.74 83.26 33.68 83.6 33.63 83.97 33.59 84.34 33.57 84.72 33.56 84.72 33.56 85.05 33.57 85.36 33.59 85.67 33.62 85.97 33.66 86.26 33.7 86.53 33.76 86.8 33.82 87.04 33.88 87.28 33.94 87.48 34 87.67 34.06 87.83 34.12 87.98 34.17 88.1 34.21 88.19 34.25 88.25 34.27 87.74 37.09"/><polygon class="cls-1" points="112.79 47.38 109.97 47.38 110.18 46.25 110.18 46.14 110.01 46.35 109.84 46.53 109.67 46.69 109.48 46.83 109.3 46.97 109.12 47.08 108.93 47.17 108.74 47.26 108.55 47.33 108.35 47.39 108.16 47.44 107.96 47.47 107.75 47.49 107.56 47.52 107.36 47.53 107.15 47.53 106.63 47.49 106.14 47.38 105.69 47.2 105.28 46.97 104.92 46.67 104.59 46.33 104.31 45.95 104.06 45.52 103.86 45.07 103.69 44.59 103.58 44.09 103.5 43.57 103.47 43.05 103.48 42.52 103.53 42 103.63 41.49 103.78 40.88 103.96 40.32 104.17 39.8 104.43 39.31 104.69 38.85 105 38.44 105.31 38.08 105.65 37.74 106 37.45 106.38 37.19 106.77 36.97 107.15 36.79 107.56 36.65 107.97 36.56 108.37 36.5 108.79 36.48 109.09 36.49 109.37 36.52 109.64 36.57 109.88 36.64 110.11 36.73 110.32 36.82 110.52 36.93 110.7 37.04 110.87 37.16 111.02 37.29 111.15 37.43 111.27 37.56 111.38 37.69 111.47 37.82 111.55 37.95 111.61 38.07 111.61 38.07 112.32 34.07 115.09 34.07 112.79 47.38 112.79 47.38"/><polyline class="cls-4" points="112.79 47.38 109.97 47.38 110.18 46.25 110.18 46.14 110.18 46.14 110.01 46.35 109.84 46.53 109.67 46.69 109.48 46.83 109.3 46.97 109.12 47.08 108.93 47.17 108.74 47.26 108.55 47.33 108.35 47.39 108.16 47.44 107.96 47.47 107.75 47.49 107.56 47.52 107.36 47.53 107.15 47.53 107.15 47.53 106.63 47.49 106.14 47.38 105.69 47.2 105.28 46.97 104.92 46.67 104.59 46.33 104.31 45.95 104.06 45.52 103.86 45.07 103.69 44.59 103.58 44.09 103.5 43.57 103.47 43.05 103.48 42.52 103.53 42 103.63 41.49 103.63 41.49 103.78 40.88 103.96 40.32 104.17 39.8 104.43 39.31 104.69 38.85 105 38.44 105.31 38.08 105.65 37.74 106 37.45 106.38 37.19 106.77 36.97 107.15 36.79 107.56 36.65 107.97 36.56 108.37 36.5 108.79 36.48 108.79 36.48 109.09 36.49 109.37 36.52 109.64 36.57 109.88 36.64 110.11 36.73 110.32 36.82 110.52 36.93 110.7 37.04 110.87 37.16 111.02 37.29 111.15 37.43 111.27 37.56 111.38 37.69 111.47 37.82 111.55 37.95 111.61 38.07 111.61 38.07 112.32 34.07 115.09 34.07 112.79 47.38"/><polygon class="cls-2" points="108.18 44.91 108.46 44.9 108.73 44.83 108.97 44.76 109.21 44.65 109.42 44.53 109.63 44.37 109.82 44.2 109.99 44.02 110.14 43.81 110.29 43.59 110.42 43.36 110.53 43.11 110.63 42.86 110.71 42.59 110.78 42.32 110.83 42.05 110.89 41.76 110.92 41.46 110.92 41.19 110.91 40.9 110.88 40.64 110.83 40.39 110.77 40.14 110.69 39.91 110.58 39.7 110.46 39.51 110.33 39.35 110.18 39.21 110 39.09 109.82 39 109.63 38.95 109.41 38.93 109.14 38.95 108.88 38.99 108.65 39.07 108.42 39.17 108.21 39.31 108.01 39.47 107.83 39.64 107.66 39.84 107.51 40.06 107.37 40.29 107.24 40.54 107.12 40.8 107.02 41.08 106.94 41.35 106.86 41.65 106.8 41.94 106.75 42.39 106.77 42.88 106.84 43.38 106.97 43.86 107.17 44.27 107.44 44.61 107.77 44.83 108.18 44.91 108.18 44.91"/><polygon class="cls-1" points="45.71 45.12 45.3 47.38 42.74 47.38 42.81 46.96 42.86 46.58 42.9 46.3 42.95 46.14 42.8 46.31 42.64 46.47 42.44 46.62 42.23 46.77 41.99 46.91 41.73 47.03 41.47 47.15 41.2 47.26 40.9 47.34 40.6 47.42 40.31 47.48 40.01 47.52 39.71 47.54 39.41 47.55 39.13 47.52 38.85 47.48 38.5 47.39 38.17 47.28 37.89 47.15 37.63 47 37.41 46.83 37.21 46.65 37.04 46.46 36.9 46.26 36.78 46.04 36.68 45.82 36.6 45.59 36.53 45.37 36.49 45.14 36.46 44.91 36.44 44.68 36.44 44.45 36.48 44.06 36.53 43.68 36.64 43.33 36.77 42.98 36.93 42.66 37.12 42.36 37.33 42.08 37.57 41.82 37.83 41.59 38.11 41.37 38.41 41.18 38.71 41.02 39.04 40.88 39.37 40.76 39.72 40.67 40.08 40.61 40.09 40.61 40.15 40.6 40.22 40.59 40.33 40.58 40.45 40.56 40.59 40.55 40.75 40.53 40.92 40.51 41.09 40.49 41.26 40.47 41.45 40.46 41.61 40.44 41.77 40.43 41.93 40.42 42.07 40.41 42.18 40.41 42.41 40.41 42.66 40.42 42.88 40.43 43.11 40.43 43.29 40.44 43.43 40.45 43.53 40.46 43.56 40.46 43.58 40.39 43.65 40.2 43.7 39.99 43.72 39.8 43.68 39.57 43.58 39.37 43.46 39.19 43.3 39.03 43.11 38.9 42.89 38.81 42.65 38.75 42.38 38.73 42.1 38.72 41.79 38.71 41.48 38.71 41.15 38.72 40.82 38.74 40.49 38.77 40.17 38.8 39.85 38.84 39.55 38.88 39.25 38.93 38.99 38.98 38.74 39.03 38.52 39.09 38.33 39.16 38.19 39.23 38.08 39.29 38.8 36.84 39.03 36.74 39.25 36.66 39.5 36.59 39.74 36.54 39.98 36.49 40.25 36.45 40.51 36.41 40.79 36.39 41.07 36.37 41.37 36.36 41.67 36.35 41.99 36.35 42.31 36.35 42.65 36.35 43.01 36.36 43.36 36.37 43.65 36.39 43.95 36.44 44.27 36.51 44.59 36.6 44.91 36.73 45.21 36.87 45.52 37.04 45.8 37.23 46.06 37.46 46.28 37.7 46.48 37.97 46.63 38.28 46.74 38.61 46.8 38.95 46.8 39.34 46.74 39.75 45.71 45.12 45.71 45.12"/><polyline class="cls-4" points="45.71 45.12 45.3 47.38 42.74 47.38 42.74 47.38 42.81 46.96 42.86 46.58 42.9 46.3 42.95 46.14 42.95 46.14 42.8 46.31 42.64 46.47 42.44 46.62 42.23 46.77 41.99 46.91 41.73 47.03 41.47 47.15 41.2 47.26 40.9 47.34 40.6 47.42 40.31 47.48 40.01 47.52 39.71 47.54 39.41 47.55 39.13 47.52 38.85 47.48 38.85 47.48 38.5 47.39 38.17 47.28 37.89 47.15 37.63 47 37.41 46.83 37.21 46.65 37.04 46.46 36.9 46.26 36.78 46.04 36.68 45.82 36.6 45.59 36.53 45.37 36.49 45.14 36.46 44.91 36.44 44.68 36.44 44.45 36.44 44.45 36.48 44.06 36.53 43.68 36.64 43.33 36.77 42.98 36.93 42.66 37.12 42.36 37.33 42.08 37.57 41.82 37.83 41.59 38.11 41.37 38.41 41.18 38.71 41.02 39.04 40.88 39.37 40.76 39.72 40.67 40.08 40.61 40.08 40.61 40.09 40.61 40.15 40.6 40.22 40.59 40.33 40.58 40.45 40.56 40.59 40.55 40.75 40.53 40.92 40.51 41.09 40.49 41.26 40.47 41.45 40.46 41.61 40.44 41.77 40.43 41.93 40.42 42.07 40.41 42.18 40.41 42.18 40.41 42.41 40.41 42.66 40.42 42.88 40.43 43.11 40.43 43.29 40.44 43.43 40.45 43.53 40.46 43.56 40.46 43.56 40.46 43.58 40.39 43.65 40.2 43.7 39.99 43.72 39.8 43.72 39.8 43.68 39.57 43.58 39.37 43.46 39.19 43.3 39.03 43.11 38.9 42.89 38.81 42.65 38.75 42.38 38.73 42.38 38.73 42.1 38.72 41.79 38.71 41.48 38.71 41.15 38.72 40.82 38.74 40.49 38.77 40.17 38.8 39.85 38.84 39.55 38.88 39.25 38.93 38.99 38.98 38.74 39.03 38.52 39.09 38.33 39.16 38.19 39.23 38.08 39.29 38.8 36.84 38.8 36.84 39.03 36.74 39.25 36.66 39.5 36.59 39.74 36.54 39.98 36.49 40.25 36.45 40.51 36.41 40.79 36.39 41.07 36.37 41.37 36.36 41.67 36.35 41.99 36.35 42.31 36.35 42.65 36.35 43.01 36.36 43.36 36.37 43.36 36.37 43.65 36.39 43.95 36.44 44.27 36.51 44.59 36.6 44.91 36.73 45.21 36.87 45.52 37.04 45.8 37.23 46.06 37.46 46.28 37.7 46.48 37.97 46.63 38.28 46.74 38.61 46.8 38.95 46.8 39.34 46.74 39.75 45.71 45.12"/><polygon class="cls-3" points="43.26 42.46 43.25 42.41 43.21 42.36 43.15 42.33 43.05 42.31 42.93 42.29 42.8 42.28 42.65 42.28 42.5 42.28 42.33 42.29 42.16 42.31 42 42.33 41.84 42.35 41.68 42.37 41.54 42.4 41.42 42.43 41.3 42.46 41.23 42.48 41.15 42.51 41.04 42.55 40.93 42.6 40.8 42.66 40.66 42.74 40.52 42.81 40.39 42.89 40.25 42.99 40.12 43.09 39.99 43.22 39.88 43.34 39.78 43.47 39.71 43.61 39.65 43.77 39.62 43.94 39.61 44.28 39.66 44.56 39.76 44.76 39.89 44.91 40.04 45.01 40.22 45.07 40.38 45.1 40.54 45.12 40.85 45.1 41.12 45.07 41.39 45.04 41.62 44.97 41.83 44.91 42.02 44.81 42.19 44.72 42.34 44.61 42.48 44.51 42.6 44.38 42.7 44.27 42.78 44.15 42.85 44.03 42.91 43.91 42.96 43.79 42.99 43.68 43.07 43.39 43.15 43.05 43.21 42.73 43.26 42.46 43.26 42.46"/><polygon class="cls-1" points="24.31 47.38 21.54 47.38 23.85 34.02 28.66 34.02 29.12 41.94 32.45 34.02 37.47 34.02 35.11 47.38 32.34 47.38 34.09 37.4 33.98 37.4 29.84 47.38 26.72 47.38 26.7 46.96 26.63 45.85 26.53 44.27 26.43 42.46 26.33 40.64 26.24 39.04 26.17 37.88 26.15 37.4 26.12 37.4 26.06 37.4 26 37.4 26 37.4 24.31 47.38 24.31 47.38"/><polyline class="cls-4" points="24.31 47.38 21.54 47.38 23.85 34.02 28.66 34.02 29.12 41.94 32.45 34.02 37.47 34.02 35.11 47.38 32.34 47.38 34.09 37.4 33.98 37.4 29.84 47.38 26.72 47.38 26.72 47.38 26.7 46.96 26.63 45.85 26.53 44.27 26.43 42.46 26.33 40.64 26.24 39.04 26.17 37.88 26.15 37.4 26.15 37.4 26.12 37.4 26.06 37.4 26 37.4 26 37.4 24.31 47.38"/><polygon class="cls-1" points="96.2 45.12 95.78 47.38 93.23 47.38 93.25 46.96 93.26 46.59 93.26 46.32 93.28 46.19 93.15 46.35 92.99 46.5 92.81 46.64 92.61 46.78 92.39 46.91 92.15 47.04 91.89 47.16 91.64 47.26 91.36 47.34 91.08 47.42 90.8 47.48 90.51 47.52 90.22 47.54 89.93 47.55 89.66 47.52 89.38 47.48 89.02 47.39 88.69 47.28 88.41 47.15 88.14 47 87.92 46.83 87.72 46.65 87.56 46.46 87.42 46.26 87.3 46.04 87.2 45.82 87.12 45.59 87.07 45.37 87.03 45.14 87 44.91 86.98 44.68 86.98 44.45 87 44.06 87.06 43.68 87.16 43.33 87.29 42.98 87.44 42.66 87.63 42.36 87.84 42.08 88.08 41.82 88.34 41.59 88.62 41.37 88.92 41.18 89.23 41.02 89.54 40.88 89.88 40.76 90.22 40.67 90.56 40.61 90.58 40.61 90.63 40.6 90.7 40.59 90.81 40.58 90.94 40.56 91.08 40.55 91.23 40.53 91.4 40.51 91.57 40.49 91.75 40.47 91.92 40.46 92.1 40.44 92.26 40.43 92.4 40.42 92.55 40.41 92.66 40.41 92.9 40.41 93.15 40.42 93.38 40.43 93.6 40.43 93.8 40.44 93.96 40.45 94.05 40.46 94.09 40.46 94.11 40.39 94.14 40.2 94.17 39.99 94.19 39.8 94.15 39.57 94.07 39.37 93.94 39.19 93.79 39.03 93.6 38.9 93.39 38.81 93.17 38.75 92.92 38.73 92.64 38.72 92.33 38.71 92.02 38.71 91.69 38.72 91.35 38.74 91.03 38.77 90.7 38.8 90.39 38.84 90.08 38.88 89.79 38.93 89.52 38.98 89.28 39.03 89.06 39.09 88.87 39.16 88.73 39.23 88.62 39.29 89.33 36.84 89.56 36.74 89.79 36.66 90.02 36.59 90.27 36.54 90.52 36.49 90.78 36.45 91.04 36.41 91.31 36.39 91.6 36.37 91.89 36.36 92.19 36.35 92.5 36.35 92.82 36.35 93.15 36.35 93.49 36.36 93.84 36.37 94.12 36.39 94.43 36.44 94.74 36.51 95.07 36.6 95.38 36.73 95.7 36.87 96 37.04 96.29 37.23 96.55 37.46 96.78 37.7 96.98 37.97 97.13 38.28 97.25 38.61 97.32 38.95 97.32 39.34 97.27 39.75 96.2 45.12 96.2 45.12"/><polygon class="cls-1" points="95.78 47.45 95.84 47.39 96.26 45.13 96.14 45.1 95.72 47.36 95.78 47.3 95.78 47.45 95.83 47.44 95.84 47.39 95.78 47.45 95.78 47.45"/><polygon class="cls-1" points="93.17 47.38 93.23 47.45 95.78 47.45 95.78 47.3 93.23 47.3 93.29 47.38 93.17 47.38 93.16 47.45 93.23 47.45 93.17 47.38 93.17 47.38"/><polygon class="cls-1" points="93.33 46.23 93.24 46.15 93.2 46.32 93.19 46.59 93.19 46.96 93.17 47.38 93.29 47.38 93.31 46.96 93.33 46.59 93.32 46.32 93.32 46.23 93.23 46.15 93.33 46.23 93.33 46.23"/><polygon class="cls-1" points="89.37 47.54 89.37 47.54 89.66 47.58 89.93 47.61 90.22 47.6 90.51 47.58 90.81 47.54 91.09 47.49 91.38 47.41 91.66 47.32 91.91 47.22 92.18 47.1 92.42 46.98 92.64 46.83 92.85 46.69 93.03 46.55 93.2 46.39 93.33 46.23 93.23 46.15 93.1 46.31 92.95 46.45 92.77 46.59 92.58 46.73 92.36 46.85 92.12 46.98 91.87 47.1 91.62 47.2 91.35 47.28 91.07 47.36 90.78 47.42 90.51 47.46 90.22 47.48 89.93 47.49 89.66 47.46 89.39 47.42 89.39 47.42 89.37 47.54 89.37 47.54"/><polygon class="cls-1" points="86.91 44.45 86.91 44.45 86.92 44.68 86.94 44.91 86.97 45.15 87.01 45.38 87.06 45.61 87.14 45.84 87.24 46.07 87.37 46.29 87.51 46.5 87.67 46.69 87.88 46.89 88.11 47.05 88.37 47.21 88.67 47.34 89.01 47.45 89.37 47.54 89.39 47.42 89.03 47.32 88.71 47.22 88.44 47.09 88.17 46.95 87.96 46.78 87.78 46.61 87.61 46.42 87.47 46.23 87.36 46.01 87.27 45.8 87.18 45.59 87.14 45.36 87.09 45.13 87.06 44.91 87.04 44.68 87.05 44.45 87.05 44.45 86.91 44.45 86.91 44.45"/><polygon class="cls-1" points="90.56 40.55 90.56 40.55 90.21 40.61 89.86 40.7 89.52 40.81 89.2 40.96 88.88 41.12 88.58 41.32 88.3 41.54 88.04 41.78 87.8 42.03 87.58 42.32 87.38 42.62 87.23 42.96 87.09 43.3 87 43.67 86.94 44.06 86.91 44.45 87.05 44.45 87.06 44.06 87.12 43.69 87.21 43.35 87.35 43 87.5 42.68 87.68 42.4 87.89 42.12 88.12 41.86 88.39 41.64 88.66 41.42 88.94 41.24 89.26 41.08 89.57 40.94 89.9 40.82 90.22 40.73 90.56 40.67 90.56 40.67 90.56 40.55 90.56 40.55"/><polygon class="cls-1" points="92.66 40.34 92.66 40.34 92.55 40.34 92.4 40.36 92.26 40.37 92.1 40.38 91.92 40.4 91.75 40.41 91.57 40.43 91.4 40.45 91.23 40.47 91.08 40.49 90.94 40.5 90.81 40.52 90.7 40.53 90.62 40.54 90.58 40.55 90.56 40.55 90.56 40.67 90.58 40.67 90.64 40.66 90.7 40.65 90.81 40.64 90.94 40.62 91.08 40.61 91.23 40.59 91.4 40.57 91.57 40.55 91.75 40.53 91.92 40.52 92.1 40.5 92.26 40.49 92.4 40.48 92.55 40.48 92.66 40.48 92.66 40.48 92.66 40.34 92.66 40.34"/><polygon class="cls-1" points="94.03 40.45 94.09 40.4 94.05 40.4 93.96 40.39 93.8 40.38 93.6 40.36 93.38 40.36 93.15 40.36 92.9 40.34 92.66 40.34 92.66 40.48 92.9 40.48 93.15 40.48 93.38 40.5 93.6 40.5 93.8 40.5 93.96 40.51 94.05 40.52 94.09 40.52 94.15 40.47 94.09 40.52 94.14 40.53 94.15 40.47 94.03 40.45 94.03 40.45"/><polygon class="cls-1" points="94.13 39.8 94.12 39.8 94.11 39.99 94.08 40.19 94.05 40.38 94.03 40.45 94.15 40.47 94.17 40.4 94.2 40.21 94.23 39.99 94.26 39.8 94.25 39.8 94.13 39.8 94.13 39.8"/><polygon class="cls-1" points="92.92 38.79 92.92 38.8 93.16 38.81 93.37 38.87 93.57 38.96 93.75 39.09 93.89 39.23 94.01 39.4 94.09 39.58 94.13 39.8 94.25 39.8 94.21 39.56 94.13 39.34 93.99 39.14 93.83 38.98 93.63 38.84 93.41 38.75 93.17 38.69 92.92 38.66 92.92 38.67 92.92 38.79 92.92 38.79"/><polygon class="cls-1" points="88.56 39.28 88.66 39.34 88.76 39.29 88.89 39.22 89.07 39.16 89.29 39.09 89.53 39.04 89.8 38.99 90.09 38.94 90.39 38.9 90.7 38.86 91.03 38.83 91.35 38.8 91.69 38.78 92.02 38.78 92.33 38.78 92.64 38.78 92.92 38.79 92.92 38.67 92.64 38.66 92.33 38.64 92.02 38.64 91.69 38.66 91.35 38.68 91.03 38.71 90.7 38.74 90.39 38.78 90.07 38.82 89.78 38.87 89.51 38.92 89.27 38.97 89.05 39.03 88.85 39.09 88.7 39.17 88.58 39.24 88.68 39.3 88.56 39.28 88.56 39.28"/><polygon class="cls-1" points="89.31 36.77 89.27 36.83 88.56 39.28 88.68 39.3 89.39 36.85 89.35 36.9 89.31 36.77 89.28 36.78 89.27 36.83 89.31 36.77 89.31 36.77"/><polygon class="cls-1" points="93.84 36.31 93.84 36.31 93.49 36.29 93.15 36.28 92.82 36.28 92.5 36.28 92.19 36.28 91.89 36.3 91.6 36.31 91.31 36.33 91.04 36.35 90.77 36.39 90.51 36.43 90.26 36.48 90.01 36.53 89.77 36.6 89.53 36.68 89.31 36.77 89.35 36.9 89.57 36.8 89.81 36.73 90.03 36.65 90.28 36.6 90.53 36.55 90.78 36.51 91.04 36.47 91.31 36.45 91.6 36.43 91.89 36.42 92.19 36.42 92.5 36.42 92.82 36.42 93.15 36.42 93.49 36.43 93.84 36.43 93.84 36.43 93.84 36.31 93.84 36.31"/><polygon class="cls-1" points="97.33 39.76 97.33 39.76 97.38 39.34 97.38 38.95 97.3 38.6 97.19 38.26 97.03 37.95 96.83 37.66 96.58 37.41 96.33 37.18 96.04 36.99 95.73 36.8 95.4 36.66 95.09 36.54 94.75 36.45 94.44 36.38 94.12 36.33 93.84 36.31 93.84 36.43 94.12 36.45 94.42 36.5 94.73 36.57 95.05 36.66 95.36 36.78 95.67 36.93 95.97 37.09 96.25 37.28 96.5 37.51 96.73 37.74 96.93 38.01 97.07 38.3 97.19 38.62 97.26 38.95 97.26 39.34 97.2 39.73 97.2 39.73 97.33 39.76 97.33 39.76"/><polygon class="cls-1" points="96.26 45.13 96.26 45.13 97.33 39.76 97.2 39.73 96.14 45.1 96.14 45.1 96.26 45.13 96.26 45.13"/><polygon class="cls-2" points="93.74 42.46 93.72 42.4 93.67 42.35 93.6 42.32 93.5 42.29 93.39 42.28 93.26 42.27 93.11 42.27 92.95 42.28 92.79 42.3 92.63 42.32 92.47 42.34 92.31 42.36 92.16 42.39 92.03 42.41 91.89 42.44 91.79 42.46 91.72 42.47 91.64 42.5 91.54 42.53 91.42 42.57 91.29 42.64 91.17 42.7 91.03 42.77 90.9 42.86 90.77 42.95 90.63 43.06 90.52 43.17 90.41 43.3 90.32 43.45 90.25 43.6 90.19 43.77 90.15 43.94 90.14 44.28 90.2 44.56 90.28 44.76 90.4 44.91 90.55 45.01 90.72 45.07 90.9 45.1 91.07 45.12 91.38 45.1 91.66 45.07 91.92 45.02 92.16 44.95 92.38 44.87 92.58 44.78 92.76 44.68 92.92 44.56 93.06 44.45 93.19 44.31 93.3 44.19 93.39 44.06 93.46 43.94 93.51 43.81 93.55 43.69 93.58 43.58 93.62 43.3 93.67 43 93.72 42.72 93.74 42.46 93.74 42.46"/><polygon class="cls-1" points="114.69 45.98 114.71 45.75 114.8 45.47 114.94 45.23 115.11 45.01 115.32 44.84 115.57 44.72 115.83 44.64 116.12 44.61 116.4 44.64 116.67 44.72 116.91 44.84 117.12 45.01 117.29 45.23 117.44 45.47 117.52 45.75 117.54 45.98 117.23 45.98 117.22 45.8 117.16 45.57 117.06 45.37 116.93 45.2 116.77 45.06 116.57 44.95 116.35 44.88 116.12 44.86 115.88 44.88 115.66 44.95 115.46 45.06 115.3 45.2 115.17 45.37 115.07 45.57 115.01 45.8 114.99 45.98 114.69 45.98 114.69 45.98"/><polygon class="cls-1" points="115.61 45.98 115.61 45.37 116.17 45.37 116.29 45.38 116.4 45.4 116.48 45.43 116.55 45.47 116.6 45.53 116.64 45.59 116.67 45.67 116.67 45.74 116.67 45.83 116.64 45.9 116.61 45.96 116.59 45.98 116.17 45.98 116.21 45.97 116.28 45.96 116.34 45.94 116.39 45.92 116.43 45.89 116.45 45.86 116.47 45.81 116.47 45.74 116.46 45.69 116.44 45.65 116.41 45.63 116.38 45.61 116.33 45.59 116.28 45.59 116.23 45.59 116.17 45.59 115.86 45.59 115.86 45.98 115.61 45.98 115.61 45.98"/><polygon class="cls-1" points="114.69 45.98 114.68 46.04 114.71 46.34 114.8 46.61 114.94 46.85 115.11 47.06 115.32 47.23 115.57 47.36 115.83 47.45 116.12 47.48 116.4 47.45 116.67 47.36 116.91 47.23 117.12 47.06 117.29 46.85 117.44 46.61 117.52 46.34 117.55 46.04 117.54 45.98 117.23 45.98 117.25 46.04 117.22 46.29 117.16 46.51 117.06 46.7 116.93 46.88 116.77 47.02 116.57 47.13 116.35 47.2 116.12 47.22 115.88 47.2 115.66 47.13 115.46 47.02 115.3 46.88 115.17 46.7 115.07 46.51 115.01 46.29 114.99 46.04 114.99 45.98 114.69 45.98 114.69 45.98"/><polygon class="cls-1" points="115.61 45.98 115.61 46.6 115.86 46.6 115.86 46.09 116.12 46.09 116.42 46.6 116.62 46.6 116.32 46.09 116.39 46.09 116.46 46.07 116.52 46.05 116.57 46.01 116.59 45.98 116.17 45.98 116.12 45.99 115.86 45.99 115.86 45.98 115.61 45.98 115.61 45.98"/><path class="cls-4" d="M114.68,46h0l0-.29.08-.28.14-.24.17-.21.21-.17.24-.12.27-.08.28,0h0l.28,0,.27.08.24.12.21.17.17.21.14.24.08.28,0,.29h0l0,.29-.08.28-.14.24-.17.2-.21.17-.24.13-.27.08-.28,0h0l-.28,0-.27-.08-.24-.13-.21-.17-.17-.2-.14-.24-.08-.28,0-.29m1.18.56h-.25V45.37h.68l.11,0,.08,0,.07,0,.05.06,0,.06,0,.07v.07h0v.09l0,.07,0,.06,0,.05,0,0-.06,0-.07,0h-.07l.3.51h-.2l-.3-.51h-.25v.51m.26-.61h0l.09,0h.07l.06,0,.05,0,0,0,0,0,0,0v-.07h0v-.05l0,0,0,0,0,0h-.51V46h.25m0,1.24h0l.23,0,.22-.07.19-.11.16-.14.13-.17.1-.19.06-.22,0-.24h0l0-.24-.06-.22-.1-.2-.13-.17-.16-.14-.19-.1-.22-.07-.23,0h0l-.24,0-.22.07-.19.1-.16.14-.13.17-.1.2-.06.22,0,.24h0l0,.24.06.22.1.19.13.17.16.14.19.11.22.07.24,0"/><polygon class="cls-1" points="96.96 47.38 99.83 47.38 99.83 47.38 100.86 41.59 100.9 41.36 100.96 41.14 101.02 40.92 101.1 40.69 101.2 40.47 101.32 40.25 101.46 40.05 101.62 39.86 101.8 39.68 102.01 39.52 102.24 39.37 102.51 39.25 102.8 39.14 103.12 39.06 103.48 39 103.88 38.98 104.02 38.98 104.1 38.98 104.13 38.98 104.13 38.98 104.59 36.37 104.31 36.39 104.03 36.42 103.78 36.47 103.53 36.54 103.31 36.62 103.09 36.73 102.89 36.84 102.7 36.96 102.51 37.1 102.34 37.24 102.18 37.41 102.02 37.57 101.86 37.74 101.71 37.93 101.56 38.12 101.42 38.32 101.72 36.48 98.86 36.48 96.96 47.38 96.96 47.38 96.96 47.38"/><polyline class="cls-4" points="96.96 47.38 99.83 47.38 99.83 47.38 100.86 41.59 100.86 41.59 100.9 41.36 100.96 41.14 101.02 40.92 101.1 40.69 101.2 40.47 101.32 40.25 101.46 40.05 101.62 39.86 101.8 39.68 102.01 39.52 102.24 39.37 102.51 39.25 102.8 39.14 103.12 39.06 103.48 39 103.88 38.98 103.88 38.98 104.02 38.98 104.1 38.98 104.13 38.98 104.13 38.98 104.59 36.37 104.59 36.37 104.31 36.39 104.03 36.42 103.78 36.47 103.53 36.54 103.31 36.62 103.09 36.73 102.89 36.84 102.7 36.96 102.51 37.1 102.34 37.24 102.18 37.41 102.02 37.57 101.86 37.74 101.71 37.93 101.56 38.12 101.42 38.32 101.72 36.48 98.86 36.48 96.96 47.38 96.96 47.38"/><polygon class="cls-1" points="70.02 47.38 72.89 47.38 72.94 47.38 73.92 41.59 73.96 41.36 74.01 41.15 74.06 40.94 74.14 40.73 74.22 40.53 74.32 40.34 74.44 40.15 74.58 39.98 74.74 39.83 74.93 39.67 75.15 39.55 75.39 39.44 75.68 39.35 76 39.27 76.34 39.22 76.74 39.19 76.77 39.19 76.81 39.2 76.86 39.21 76.91 39.21 76.96 39.22 77 39.23 77.03 39.24 77.04 39.24 77.05 39.2 77.08 39.07 77.12 38.89 77.17 38.67 77.25 38.4 77.31 38.12 77.41 37.83 77.5 37.55 77.58 37.35 77.68 37.16 77.78 36.97 77.89 36.79 77.98 36.64 78.05 36.52 78.1 36.45 78.12 36.42 78.11 36.42 78.07 36.41 78.02 36.4 77.95 36.39 77.88 36.39 77.8 36.38 77.72 36.37 77.65 36.37 77.34 36.39 77.05 36.42 76.79 36.47 76.54 36.53 76.31 36.61 76.1 36.71 75.9 36.82 75.72 36.94 75.55 37.07 75.38 37.22 75.23 37.38 75.08 37.55 74.93 37.72 74.78 37.91 74.63 38.12 74.48 38.32 74.85 36.48 71.92 36.48 70.02 47.38 70.02 47.38 70.02 47.38"/><polyline class="cls-4" points="70.02 47.38 72.89 47.38 72.94 47.38 73.92 41.59 73.92 41.59 73.96 41.36 74.01 41.15 74.06 40.94 74.14 40.73 74.22 40.53 74.32 40.34 74.44 40.15 74.58 39.98 74.74 39.83 74.93 39.67 75.15 39.55 75.39 39.44 75.68 39.35 76 39.27 76.34 39.22 76.74 39.19 76.74 39.19 76.77 39.19 76.81 39.2 76.86 39.21 76.91 39.21 76.96 39.22 77 39.23 77.03 39.24 77.04 39.24 77.04 39.24 77.05 39.2 77.08 39.07 77.12 38.89 77.17 38.67 77.25 38.4 77.31 38.12 77.41 37.83 77.5 37.55 77.5 37.55 77.58 37.35 77.68 37.16 77.78 36.97 77.89 36.79 77.98 36.64 78.05 36.52 78.1 36.45 78.12 36.42 78.12 36.42 78.11 36.42 78.07 36.41 78.02 36.4 77.95 36.39 77.88 36.39 77.8 36.38 77.72 36.37 77.65 36.37 77.65 36.37 77.34 36.39 77.05 36.42 76.79 36.47 76.54 36.53 76.31 36.61 76.1 36.71 75.9 36.82 75.72 36.94 75.55 37.07 75.38 37.22 75.23 37.38 75.08 37.55 74.93 37.72 74.78 37.91 74.63 38.12 74.48 38.32 74.85 36.48 71.92 36.48 70.02 47.38 70.02 47.38"/><polygon class="cls-2" points="114.71 58.08 114.71 58.04 114.8 57.77 114.94 57.54 115.11 57.34 115.32 57.17 115.57 57.05 115.83 56.98 116.12 56.95 116.4 56.98 116.67 57.05 116.91 57.17 117.12 57.34 117.29 57.54 117.44 57.77 117.52 58.04 117.52 58.08 117.22 58.08 117.16 57.86 117.06 57.67 116.93 57.5 116.77 57.36 116.57 57.24 116.35 57.17 116.12 57.15 115.88 57.17 115.66 57.24 115.46 57.36 115.3 57.5 115.17 57.67 115.07 57.86 115.01 58.08 114.71 58.08 114.71 58.08"/><polygon class="cls-2" points="115.61 58.08 115.61 57.72 116.17 57.72 116.29 57.72 116.4 57.74 116.48 57.76 116.55 57.8 116.6 57.85 116.64 57.91 116.67 57.99 116.67 58.08 116.47 58.08 116.47 58.02 116.46 57.98 116.44 57.93 116.41 57.91 116.38 57.9 116.33 57.88 116.28 57.87 116.23 57.87 116.17 57.87 115.86 57.87 115.86 58.08 115.61 58.08 115.61 58.08"/><polygon class="cls-2" points="114.68 58.3 114.71 58.08 115.01 58.08 115.01 58.09 114.99 58.3 114.68 58.3 114.68 58.3"/><polygon class="cls-2" points="115.61 58.3 115.61 58.08 115.86 58.08 115.86 58.28 116.12 58.28 116.21 58.26 116.28 58.25 116.34 58.23 116.39 58.21 116.43 58.18 116.45 58.15 116.47 58.1 116.47 58.08 116.67 58.08 116.67 58.08 116.67 58.15 116.64 58.21 116.61 58.26 116.57 58.3 115.61 58.3 115.61 58.3"/><polygon class="cls-2" points="117.25 58.3 117.22 58.09 117.22 58.08 117.52 58.08 117.55 58.3 117.25 58.3 117.25 58.3"/><polygon class="cls-2" points="114.68 58.3 114.68 58.33 114.71 58.63 114.8 58.9 114.94 59.15 115.11 59.36 115.32 59.53 115.57 59.65 115.83 59.73 116.12 59.77 116.4 59.73 116.67 59.65 116.91 59.53 117.12 59.36 117.29 59.15 117.44 58.9 117.52 58.63 117.55 58.33 117.55 58.3 117.25 58.3 117.25 58.33 117.22 58.58 117.16 58.8 117.06 58.99 116.93 59.16 116.77 59.31 116.57 59.42 116.35 59.49 116.12 59.51 115.88 59.49 115.66 59.42 115.46 59.31 115.3 59.16 115.17 58.99 115.07 58.8 115.01 58.58 114.99 58.33 114.99 58.3 114.68 58.3 114.68 58.3"/><polygon class="cls-2" points="115.61 58.3 115.61 58.89 115.86 58.89 115.86 58.38 116.12 58.38 116.42 58.89 116.62 58.89 116.32 58.38 116.39 58.38 116.46 58.36 116.52 58.34 116.57 58.3 116.57 58.3 115.61 58.3 115.61 58.3"/><rect class="cls-1" x="62.75" y="40.67" width="1.66" height="1.99"/></g></svg>