<svg xmlns="http://www.w3.org/2000/svg" viewBox="0 0 139.22 78.5"><defs><style>.cls-1{fill:#fff;}.cls-2{fill:#1166b0;}.cls-3{fill:#f7a637;}</style></defs><title>visa</title><g id="Camada_4" data-name="Camada 4"><rect class="cls-1" x="0.09" y="0.33" width="138.47" height="77.68"/><polygon class="cls-2" points="60.71 56.62 51.63 56.62 57.3 21.75 66.38 21.75 60.71 56.62"/><path class="cls-2" d="M44,21.75l-8.65,24-1-5.16h0L31.26,24.89s-.37-3.14-4.31-3.14H12.65l-.17.59a33.91,33.91,0,0,1,9.49,4l7.89,30.29h9.46L53.76,21.75H44Z"/><path class="cls-2" d="M115.39,56.62h8.34l-7.27-34.87h-7.3a4.17,4.17,0,0,0-4.19,2.6L91.43,56.62h9.46l1.89-5.18h11.54Zm-10-12.33,4.77-13,2.68,13Z"/><path class="cls-2" d="M92.14,30.14l1.3-7.49a26.22,26.22,0,0,0-8.16-1.52c-4.5,0-15.2,2-15.2,11.54,0,9,12.55,9.12,12.55,13.85s-11.26,3.89-15,.9L66.3,55.25a25.43,25.43,0,0,0,10.25,2c6.19,0,15.54-3.21,15.54-11.94,0-9.06-12.66-9.91-12.66-13.85S88.26,28,92.14,30.14Z"/><path class="cls-3" d="M34.32,40.57,31.26,24.89s-.37-3.14-4.31-3.14H12.65l-.17.59A35.18,35.18,0,0,1,26,29.1,27.19,27.19,0,0,1,34.32,40.57Z"/></g></svg>